<?xml version="1.0" standalone="no"?>
<!DOCTYPE svg PUBLIC "-//W3C//DTD SVG 20010904//EN"
 "http://www.w3.org/TR/2001/REC-SVG-20010904/DTD/svg10.dtd">
<svg version="1.0" xmlns="http://www.w3.org/2000/svg"
 width="960.000000pt" height="1248.000000pt" viewBox="0 0 960.000000 1248.000000"
 preserveAspectRatio="xMidYMid meet">

<g transform="translate(0.000000,1248.000000) scale(0.100000,-0.100000)"
fill="#000000" stroke="none">
<path d="M4102 11328 c4 -41 11 -56 33 -74 15 -12 35 -19 45 -17 10 3 20 1 23
-4 8 -13 115 1 130 16 10 11 7 12 -15 7 -37 -9 -122 11 -154 36 -14 12 -33 36
-40 55 -20 47 -27 41 -22 -19z"/>
<path d="M5502 11199 c-67 -11 -174 -53 -227 -89 -22 -15 -52 -30 -67 -34 -29
-7 -54 -37 -96 -118 l-28 -52 -79 -16 c-44 -9 -90 -22 -102 -28 -29 -16 -100
-109 -108 -142 -10 -42 32 -111 87 -140 26 -14 50 -29 54 -33 10 -10 -22 -43
-55 -57 -28 -11 -38 -40 -14 -40 7 0 13 -1 14 -2 0 -2 3 -23 5 -48 3 -25 9
-47 12 -50 9 -6 11 -15 32 -140 10 -58 16 -113 15 -122 -2 -10 1 -20 6 -23 5
-4 7 -10 4 -15 -3 -4 -5 -54 -6 -109 0 -82 -4 -103 -17 -110 -13 -8 -14 -12
-3 -25 9 -11 10 -16 2 -16 -23 0 -9 -29 24 -50 75 -46 20 -50 -133 -9 -91 24
-93 24 -57 -6 27 -22 28 -24 10 -26 -58 -5 -411 4 -418 11 -16 14 23 69 76
110 55 41 174 100 202 100 10 0 13 5 9 11 -17 28 -201 -22 -324 -88 -97 -51
-125 -76 -187 -165 -55 -79 -56 -80 -70 -57 -13 23 -14 21 -10 -23 2 -25 1
-51 -3 -57 -4 -7 -45 -14 -93 -17 -147 -8 -309 -60 -404 -130 -92 -67 -152
-139 -158 -189 -1 -14 -24 -48 -50 -76 -47 -50 -56 -82 -12 -41 38 36 50 29
43 -25 -4 -27 -15 -58 -24 -70 -9 -11 -35 -44 -57 -71 -22 -28 -53 -69 -70
-92 -27 -37 -104 -109 -191 -178 l-29 -23 40 5 40 5 -60 -55 c-33 -29 -62 -54
-66 -54 -3 0 -5 -15 -6 -33 -1 -29 2 -33 26 -32 34 0 72 25 144 94 40 39 57
50 57 38 0 -10 -21 -77 -46 -150 -46 -133 -62 -237 -53 -352 6 -76 1 -141 -15
-195 -19 -65 -20 -75 -2 -92 14 -14 36 -122 36 -176 0 -17 7 -38 16 -47 11
-10 17 -38 19 -79 2 -35 10 -77 18 -92 8 -16 17 -52 21 -81 6 -46 4 -53 -14
-63 -28 -15 -25 -29 17 -73 l38 -39 -38 22 c-74 44 -156 -1 -182 -100 -36
-137 -4 -271 98 -403 16 -21 31 -36 33 -34 2 2 8 39 14 83 22 171 41 227 70
209 15 -10 12 -53 -11 -125 -31 -99 -29 -170 9 -265 32 -82 127 -214 142 -198
4 4 13 26 20 48 25 79 51 86 74 19 14 -43 14 -47 -3 -65 -19 -21 -31 -62 -31
-107 0 -16 14 -38 40 -63 26 -25 38 -43 34 -54 -15 -37 123 -59 192 -30 43 18
44 5 -20 193 -44 127 -74 187 -103 205 -37 22 -54 97 -42 185 9 71 10 64 -49
177 -12 22 -31 61 -42 87 -12 26 -34 61 -50 78 -38 41 -25 38 35 -8 47 -35 52
-45 87 -142 21 -58 45 -138 54 -179 9 -41 34 -109 55 -151 22 -43 39 -82 39
-87 0 -18 52 -59 57 -45 3 6 9 10 14 6 5 -3 9 10 10 28 3 92 -1 226 -10 338
-6 68 -8 126 -6 128 10 10 -29 62 -99 131 -73 71 -87 91 -67 91 19 0 277 -196
285 -216 5 -14 9 -14 23 -3 12 10 15 10 9 1 -4 -7 -4 -37 -1 -67 l7 -55 37 0
38 0 12 -82 c15 -97 43 -177 77 -217 62 -74 335 -130 574 -118 182 10 303 52
351 121 13 20 27 36 32 36 4 0 7 6 7 13 0 7 5 18 12 25 6 6 12 22 14 34 7 81
28 206 35 220 5 10 22 21 37 25 46 13 273 7 317 -8 39 -14 40 -16 47 -69 4
-30 8 -83 9 -117 1 -48 7 -66 25 -86 12 -14 20 -27 17 -31 -14 -14 50 -74 108
-103 108 -52 185 -66 354 -67 221 0 335 29 424 109 46 42 48 39 25 -29 -16
-46 -13 -69 5 -50 26 26 92 169 111 239 21 78 31 95 58 95 10 0 13 -12 10 -45
-2 -24 2 -45 7 -47 18 -4 73 91 86 148 11 48 10 57 -4 71 -25 25 -47 9 -48
-34 0 -34 -2 -36 -11 -16 -11 24 -35 33 -89 33 -20 0 -52 7 -72 15 -19 8 -37
11 -41 8 -3 -4 -6 -26 -6 -50 0 -36 3 -43 20 -43 24 0 24 5 5 -98 -25 -143
-55 -187 -162 -241 -81 -40 -150 -53 -298 -53 -142 0 -259 17 -334 48 -76 32
-141 122 -140 194 0 19 3 29 6 23 2 -7 9 -13 14 -13 12 0 49 37 49 50 0 13
-37 50 -50 50 -5 0 -10 -15 -10 -32 -1 -29 -2 -31 -12 -14 -14 24 -2 156 18
204 8 19 22 42 32 50 15 12 14 12 -8 0 -14 -9 -32 -33 -40 -57 -8 -22 -18 -41
-22 -41 -11 0 -10 17 3 43 10 22 10 22 -10 -1 -11 -12 -21 -26 -23 -31 -2 -5
-39 -1 -83 10 -101 24 -306 27 -328 5 -12 -13 -16 -10 -26 23 -15 50 -30 63
-151 122 -126 62 -270 111 -328 113 -25 1 -46 7 -51 15 -7 11 -10 11 -12 -3
-4 -15 -6 -15 -26 -1 -13 9 -23 23 -23 31 0 11 17 13 93 11 106 -4 179 -27
261 -81 61 -40 71 -45 71 -31 0 6 -4 9 -10 7 -5 -2 -5 2 2 8 14 15 36 3 29
-15 -6 -16 27 -47 74 -70 19 -10 45 -26 57 -38 18 -16 25 -18 37 -8 16 13 29
77 28 130 -1 30 -36 118 -52 131 -5 4 -10 32 -13 77 0 7 -7 15 -15 18 -10 4
-12 13 -7 32 6 24 5 25 -11 12 -15 -13 -16 -12 -9 11 4 14 12 31 17 38 14 16
-1 15 -32 -3 -32 -18 -51 -19 -44 -1 4 11 0 13 -17 9 -16 -5 -20 -3 -14 6 4 7
16 11 26 8 10 -3 21 -2 23 2 7 11 100 2 104 -9 2 -6 8 -8 13 -4 5 3 9 1 9 -4
0 -6 16 -13 36 -17 34 -6 35 -7 18 -21 -18 -14 -17 -15 9 -9 15 3 48 8 74 11
26 3 61 13 77 21 21 11 59 17 114 17 83 1 96 -4 65 -24 -14 -9 -11 -10 17 -4
19 4 60 9 90 11 83 4 176 35 263 87 43 25 83 45 90 43 7 -1 11 4 9 11 -1 8 2
11 7 8 5 -4 42 30 82 73 40 44 77 77 82 74 6 -4 7 -1 2 6 -4 7 1 20 13 32 30
27 96 144 128 224 32 84 41 96 48 64 8 -41 19 -122 22 -169 2 -25 8 -79 14
-120 5 -41 12 -120 15 -175 3 -55 10 -104 15 -109 6 -6 10 -22 10 -37 0 -15 7
-32 15 -39 8 -7 15 -19 15 -26 0 -17 27 -18 33 -1 4 8 6 7 6 -3 1 -8 10 -32
21 -52 36 -67 44 -160 26 -283 -9 -60 -14 -110 -12 -112 9 -9 89 17 100 33 13
16 14 16 23 -1 20 -35 35 -6 31 64 -3 63 -2 66 20 69 13 2 32 -4 43 -14 17
-15 23 -15 47 -4 15 7 37 12 50 11 22 -2 26 2 36 50 3 16 15 29 27 32 20 5 21
10 14 81 -7 77 -1 121 16 111 5 -4 9 17 9 49 0 35 5 60 15 70 8 8 15 32 15 54
0 22 5 42 10 44 7 2 11 84 11 230 0 264 11 302 39 140 20 -113 49 -142 50 -49
0 24 4 36 11 32 11 -8 3 58 -12 86 -5 10 -11 44 -13 77 -3 40 -13 73 -29 99
-38 61 -97 191 -97 213 0 11 7 23 15 26 8 4 15 13 15 21 0 8 4 12 9 8 6 -3 13
21 17 55 3 33 12 65 20 70 13 12 7 40 -22 106 -7 17 -15 45 -16 63 -1 18 -6
35 -10 37 -5 3 -21 31 -37 63 -32 63 -142 173 -236 235 -66 45 -234 126 -261
127 -11 0 -44 8 -74 18 l-55 19 33 7 c35 8 54 25 28 25 -26 0 -18 13 29 48 26
18 52 49 61 70 18 42 30 182 16 182 -5 0 -15 13 -22 30 -7 16 -16 27 -21 25
-4 -3 -16 6 -25 20 -15 23 -19 24 -26 11 -13 -24 -26 -20 -63 22 -37 40 -41
39 -24 -5 18 -45 27 -145 16 -170 -6 -13 -21 -30 -34 -38 -12 -8 -35 -23 -49
-32 l-26 -17 21 35 c35 58 31 72 -57 167 -23 26 -39 38 -35 27 6 -18 5 -19
-13 -5 -10 8 -39 35 -63 60 -24 25 -36 34 -27 20 16 -25 22 -61 9 -59 -20 3
-22 -3 -9 -29 24 -46 6 -56 -41 -22 -46 34 -167 96 -207 106 -14 3 -28 10 -31
14 -2 4 -12 50 -20 101 -22 130 -86 259 -128 259 -30 0 -155 71 -188 106 -19
22 -48 68 -64 104 -68 155 -8 314 144 383 71 33 207 31 281 -4 78 -37 131 -88
170 -161 30 -55 34 -72 35 -138 0 -63 -4 -80 -24 -108 -13 -18 -21 -36 -18
-38 14 -15 59 16 137 95 61 61 94 105 117 151 45 94 67 233 44 278 -5 9 -13
31 -18 47 -4 17 -13 30 -18 31 -6 0 -17 3 -25 7 -18 7 -61 15 -145 26 -64 9
-95 19 -95 30 0 16 -84 93 -123 112 -23 12 -73 53 -111 91 -64 65 -68 71 -62
104 4 18 3 33 -1 33 -4 -1 -32 -5 -61 -10z m-108 -1105 c9 -3 14 -9 12 -13 -2
-3 6 -7 17 -8 37 -2 77 -22 77 -37 0 -18 -58 -27 -84 -13 -67 35 -86 95 -22
71z m4 -383 c31 -10 70 -21 85 -25 15 -4 25 -10 23 -15 -6 -10 -56 -2 -72 10
-6 5 -38 18 -70 28 -32 11 -51 20 -41 20 10 1 43 -7 75 -18z m-779 -110 c12
-8 8 -11 -15 -16 -16 -3 -43 -13 -61 -20 -40 -18 -37 2 5 28 31 19 50 21 71 8z
m765 -44 c16 -12 16 -13 -3 -15 -60 -8 -154 -2 -166 10 -3 3 9 5 26 6 17 0 34
3 37 6 11 11 88 6 106 -7z m-1490 -87 c-6 -6 -43 -19 -82 -30 -39 -11 -124
-45 -188 -75 -64 -30 -119 -55 -123 -55 -3 0 15 18 39 40 58 52 148 97 230
114 80 18 138 20 124 6z m1180 -22 c-17 -19 -17 -21 -1 -15 24 9 21 2 -7 -17
-14 -9 -32 -13 -41 -10 -14 6 -12 11 11 35 34 35 68 42 38 7z m-1498 -156 c-8
-13 -109 -62 -127 -62 -10 1 -9 4 4 14 9 7 17 17 17 22 0 5 11 11 25 12 14 1
38 8 53 16 28 15 38 14 28 -2z m904 -5 c0 -2 -10 -12 -21 -23 -22 -19 -22 -19
-8 4 12 19 29 30 29 19z m124 -59 c-6 -10 -4 -10 7 0 15 14 33 16 25 3 -3 -5
2 -12 12 -16 16 -6 15 -8 -3 -21 -28 -21 -85 -49 -65 -32 24 21 22 37 -3 30
-22 -5 -22 -5 2 22 26 28 37 34 25 14z m-334 -18 c-5 -10 -6 -21 -2 -25 4 -5
2 -5 -4 -2 -6 4 -17 -6 -24 -21 -8 -17 -14 -22 -17 -14 -3 7 3 22 13 34 11 11
18 22 17 24 -7 11 -1 21 11 21 11 0 12 -5 6 -17z m-749 -39 c-20 -28 -105 -91
-123 -91 -33 0 48 94 107 124 37 19 44 6 16 -33z m1506 -95 c-24 -36 5 -44 33
-9 11 14 20 21 20 15 0 -5 -11 -20 -25 -33 -13 -13 -25 -31 -25 -39 -1 -8 -6
-4 -11 9 -7 18 -12 21 -23 12 -7 -6 -17 -7 -21 -3 -5 4 -5 1 -1 -6 5 -7 13
-10 20 -5 7 4 3 0 -7 -9 -11 -10 -24 -15 -29 -12 -6 4 -14 0 -19 -7 -15 -24
-19 -4 -6 32 13 38 36 61 54 54 6 -2 19 5 29 16 23 26 31 16 11 -15z m1583
-81 c63 -49 104 -93 172 -187 98 -136 111 -162 116 -243 3 -46 1 -75 -5 -75
-15 0 -122 231 -128 275 -6 42 -18 61 -56 89 -21 17 -39 33 -39 37 0 12 -67
74 -137 127 -34 26 -63 50 -63 55 0 12 81 -33 140 -78z m-1049 31 c-31 -32
-138 -97 -157 -96 -5 1 7 9 26 19 19 11 49 32 65 48 66 63 124 88 66 29z
m-946 -6 c-3 -5 -14 -10 -23 -9 -14 0 -13 2 3 9 27 11 27 11 20 0z m153 -36
c0 -16 -3 -21 -8 -14 -12 20 -23 -7 -16 -38 5 -18 4 -22 -3 -13 -7 11 -10 10
-19 -4 -5 -11 -16 -16 -25 -12 -13 5 -14 11 -5 35 6 16 18 29 26 29 9 0 23 9
31 21 9 12 17 21 17 22 1 0 2 -12 2 -26z m-229 -21 c-18 -21 -38 -42 -43 -48
-15 -17 6 18 32 53 13 17 29 32 35 32 6 0 -5 -17 -24 -37z m662 4 c-6 -6 -11
-16 -11 -21 0 -6 9 3 20 19 l21 30 -7 -30 c-12 -51 -84 -168 -84 -134 1 38 61
182 68 161 2 -8 -1 -19 -7 -25z m-61 -74 c-24 -48 -35 -57 -19 -17 5 15 7 29
5 32 -3 3 -10 -6 -15 -20 -5 -14 -16 -25 -24 -25 -9 0 -13 6 -9 15 3 10 1 13
-6 8 -8 -5 -10 -1 -5 10 4 11 8 13 11 6 6 -18 22 -4 22 18 0 10 4 22 10 25 5
3 7 0 4 -8 -3 -8 1 -14 10 -14 8 0 13 4 10 9 -3 5 0 16 8 25 24 29 23 -15 -2
-64z m-358 35 c-8 -8 -9 -4 -5 13 4 13 8 18 11 10 2 -7 -1 -18 -6 -23z m718
-58 c0 -5 -5 -10 -11 -10 -5 0 -7 5 -4 10 3 6 8 10 11 10 2 0 4 -4 4 -10z
m-1033 -42 c-3 -7 -5 -2 -5 12 0 14 2 19 5 13 2 -7 2 -19 0 -25z m1008 -25
c-5 -10 -9 -20 -10 -23 0 -3 -9 -20 -18 -37 -19 -36 -31 -44 -24 -15 3 9 8 30
11 45 4 15 11 25 16 22 5 -3 12 4 15 16 4 11 9 18 12 15 3 -3 2 -13 -2 -23z
m299 -15 c-5 -30 -4 -39 4 -34 7 4 12 14 12 22 0 23 20 16 21 -8 1 -17 2 -19
6 -5 2 9 8 17 13 17 9 0 -2 -56 -24 -119 -9 -24 -14 -47 -11 -51 10 -16 -33
-83 -54 -87 -23 -3 -22 5 4 37 13 17 47 100 41 100 -3 0 -19 -25 -36 -55 -44
-76 -59 -69 -34 15 7 22 6 24 -9 11 -16 -12 -16 -10 -2 28 8 23 10 39 5 36
-15 -9 -12 4 11 65 22 58 36 80 26 43 -3 -13 -1 -23 4 -23 5 0 11 11 15 25 10
40 15 29 8 -17z m-371 15 c-7 -3 -13 -12 -14 -21 0 -11 -2 -13 -6 -4 -6 15 17
46 26 36 3 -4 0 -9 -6 -11z m104 -4 c-4 -16 -3 -18 8 -9 9 8 14 6 19 -6 9 -24
7 -56 -3 -50 -5 4 -7 -3 -4 -13 7 -26 -14 -62 -32 -55 -8 4 -15 1 -15 -6 0 -6
-5 -8 -11 -4 -6 3 -9 15 -6 25 3 11 1 17 -4 13 -5 -3 -9 4 -9 16 0 13 9 24 26
30 14 6 22 15 19 21 -8 11 2 59 11 59 4 0 4 -9 1 -21z m-200 -41 c-2 -13 -4
-5 -4 17 -1 22 1 32 4 23 2 -10 2 -28 0 -40z m884 28 c-24 -25 -61 -41 -61
-25 0 7 65 47 79 49 3 0 -6 -11 -18 -24z m-780 -58 c-6 -13 -10 -16 -11 -8 0
13 -1 13 -10 0 -13 -20 -12 -10 1 30 9 26 14 29 20 17 5 -9 5 -25 0 -39z m169
12 c0 -13 -1 -13 -10 0 -8 12 -10 12 -10 1 0 -8 -2 -12 -5 -10 -2 3 -2 15 2
28 4 17 8 19 14 9 5 -7 9 -20 9 -28z m1198 -71 c5 -21 7 -37 3 -34 -13 7 -91
125 -91 136 0 26 79 -66 88 -102z m-1561 -11 c-2 -13 -4 -3 -4 22 0 25 2 35 4
23 2 -13 2 -33 0 -45z m370 -20 c-3 -8 -6 -5 -6 6 -1 11 2 17 5 13 3 -3 4 -12
1 -19z m519 -55 c-2 -27 -2 -38 1 -25 7 35 23 26 24 -15 l1 -38 10 48 c6 26
14 47 18 47 13 0 17 -40 8 -79 -4 -19 -4 -47 -1 -62 3 -15 0 -35 -6 -46 -10
-15 -11 -12 -7 17 6 34 5 34 -5 8 -6 -16 -18 -28 -27 -28 -13 0 -14 2 -4 8 7
5 10 16 6 27 -7 17 -8 17 -21 -1 -15 -20 -15 -17 -15 51 0 23 -1 25 -5 8 -10
-48 -18 -20 -14 49 3 53 6 65 11 43 l6 -30 7 33 c10 47 17 39 13 -15z m31 15
c-3 -8 -6 -5 -6 6 -1 11 2 17 5 13 3 -3 4 -12 1 -19z m117 -86 c3 -18 10 -39
16 -47 7 -8 9 -29 6 -50 -4 -21 -2 -54 4 -74 6 -23 6 -60 1 -97 -5 -32 -9 -47
-10 -33 0 15 -7 29 -15 32 -11 4 -13 17 -9 48 4 30 3 40 -5 35 -7 -4 -12 -18
-12 -32 0 -14 -6 -24 -14 -24 -11 0 -14 12 -11 53 2 28 1 43 -2 32 -8 -32 -21
-40 -15 -9 4 20 2 25 -8 19 -10 -6 -12 -4 -7 9 4 10 7 31 7 47 0 18 4 28 10
24 6 -3 10 3 10 15 0 12 -4 18 -10 15 -5 -3 -10 -1 -10 5 0 6 8 14 18 17 26
10 32 23 33 78 l1 50 9 -40 c5 -22 11 -55 13 -73z m-197 26 c-2 -13 -4 -5 -4
17 -1 22 1 32 4 23 2 -10 2 -28 0 -40z m477 -64 c0 -12 5 -22 10 -21 6 1 13
-19 17 -45 4 -25 10 -56 14 -67 4 -12 2 -21 -4 -21 -6 0 -11 -8 -11 -17 0 -15
2 -15 9 -4 6 10 8 0 6 -30 -1 -24 -3 -46 -4 -49 -2 -9 -31 52 -31 66 0 8 -4
14 -10 14 -5 0 -10 13 -10 28 0 15 -4 32 -9 38 -17 16 -31 97 -19 111 6 7 14
11 18 8 5 -3 6 4 3 15 -3 11 -9 23 -14 26 -5 3 -9 13 -9 22 0 24 42 -47 44
-74z m-170 50 c3 -8 2 -12 -4 -9 -6 3 -10 10 -10 16 0 14 7 11 14 -7z m114
-29 c-3 -3 -9 2 -12 12 -6 14 -5 15 5 6 7 -7 10 -15 7 -18z m-611 -32 c-3 -10
-5 -4 -5 12 0 17 2 24 5 18 2 -7 2 -21 0 -30z m534 -5 c17 -33 18 -40 5 -29
-9 7 -16 20 -16 27 0 8 -4 14 -10 14 -5 0 -10 7 -10 15 0 25 8 17 31 -27z
m-492 -43 c1 -17 -1 -17 -9 -5 -5 8 -9 26 -9 40 0 23 1 23 9 5 5 -11 9 -29 9
-40z m389 -31 c-3 -14 -5 -12 -10 9 -3 19 -2 25 4 19 6 -6 8 -18 6 -28z m366
-36 c20 -55 24 -154 7 -171 -6 -6 -11 -7 -12 -1 -1 5 -3 29 -5 54 -2 24 -11
71 -19 103 -14 55 -12 89 4 70 4 -4 16 -29 25 -55z m-807 20 c-3 -7 -5 -2 -5
12 0 14 2 19 5 13 2 -7 2 -19 0 -25z m892 -140 c13 -58 20 -112 16 -119 -5 -8
-4 -10 3 -5 8 5 10 -7 8 -40 -3 -30 -10 -50 -20 -56 -13 -7 -16 -4 -16 19 0
22 2 25 10 13 8 -13 10 -12 10 3 0 9 -4 17 -10 17 -5 0 -10 7 -10 15 0 8 -5
15 -11 15 -5 0 -9 8 -8 18 1 9 -1 33 -4 52 -4 19 -8 51 -10 70 -3 19 -10 54
-16 78 -7 23 -9 47 -5 53 14 24 41 -31 63 -133z m-110 -3 c-1 -29 -1 -29 -9
-5 -4 14 -8 34 -9 45 -1 16 1 17 9 5 5 -8 9 -28 9 -45z m184 41 c6 -16 -2 -28
-14 -20 -12 7 -11 34 0 34 5 0 11 -6 14 -14z m-1184 -641 c-19 -31 -19 -35 -4
-35 25 0 -42 -77 -89 -102 -40 -21 -146 -41 -146 -27 0 4 4 9 9 11 5 2 44 35
87 73 129 117 182 147 143 80z m-364 -125 c-17 -27 -175 -72 -175 -50 0 5 6
10 13 10 6 1 44 16 82 34 45 21 72 29 77 22 4 -5 5 -13 3 -16z m-1379 -120
c23 9 24 8 24 -34 0 -40 2 -43 25 -41 24 3 24 3 8 -22 l-16 -25 36 7 c30 6 36
5 32 -7 -5 -12 3 -13 44 -8 31 4 55 2 65 -6 15 -10 14 -12 -5 -17 -18 -5 -19
-9 -9 -27 8 -15 8 -25 1 -34 -6 -7 -7 -17 -3 -21 4 -5 2 -5 -5 -1 -7 4 -17 -2
-23 -14 -11 -21 -87 -60 -117 -60 -34 0 -178 52 -210 77 -20 14 -37 39 -44 63
-11 36 -10 43 15 80 15 23 39 46 54 52 15 7 34 17 42 24 18 15 54 22 58 12 2
-4 14 -3 28 2z m743 -109 c66 -34 85 -45 122 -73 20 -16 42 -28 48 -28 6 0 11
-9 11 -21 0 -15 5 -19 15 -15 20 7 32 -21 16 -37 -8 -8 -15 -6 -27 9 -8 10
-13 12 -9 4 6 -13 5 -13 -7 0 -40 45 -173 83 -338 95 -47 3 -100 8 -118 11
l-34 5 31 30 c17 16 38 29 46 29 10 0 13 5 9 12 -13 21 190 3 235 -21z m-220
-137 c3 -16 1 -17 -13 -5 -19 16 -21 34 -3 29 6 -3 14 -13 16 -24z m198 -109
c3 -9 3 -18 0 -22 -11 -10 -57 7 -57 22 0 20 49 20 57 0z m227 -56 c20 3 26
-1 26 -14 0 -22 80 -185 90 -185 6 0 10 -4 10 -10 0 -5 -9 -10 -20 -10 -22 0
-50 -46 -50 -82 1 -33 24 -60 44 -52 16 6 16 4 1 -32 -54 -131 -145 -180 -350
-191 -242 -12 -491 43 -554 123 -34 43 -52 121 -45 187 8 66 16 70 81 32 23
-14 43 -23 43 -19 0 3 7 1 15 -6 20 -16 136 -17 193 -1 29 8 42 17 42 29 0 10
5 23 12 30 18 18 3 25 -23 12 -19 -11 -21 -10 -16 4 4 9 5 16 4 16 -1 0 -17
-4 -35 -9 -25 -8 -32 -7 -29 2 2 7 26 13 53 15 60 4 73 14 39 32 -14 7 -25 17
-25 22 0 5 -4 7 -9 3 -5 -3 -12 -1 -16 5 -14 23 23 7 58 -25 35 -32 43 -35
102 -35 35 0 76 5 92 11 38 14 81 56 105 103 l20 39 19 -29 c11 -17 16 -38 13
-49 -17 -59 -20 -55 45 -55 l61 0 0 30 c0 17 -9 48 -19 69 -15 28 -17 41 -9
49 9 9 14 9 19 1 3 -6 9 -10 13 -10z m-836 -46 c-10 -2 -26 -2 -35 0 -10 3 -2
5 17 5 19 0 27 -2 18 -5z m262 -107 c0 -2 -7 -9 -15 -16 -13 -11 -14 -10 -9 4
5 14 24 23 24 12z m2295 -6 c36 -9 34 -10 -30 -14 -53 -4 -69 0 -60 15 7 10
46 10 90 -1z m-2588 -57 c-3 -10 -5 -2 -5 17 0 19 2 27 5 18 2 -10 2 -26 0
-35z m2549 -64 l-15 -34 5 50 c7 67 17 89 22 49 1 -17 -4 -47 -12 -65z m-19
59 c-3 -8 -6 -5 -6 6 -1 11 2 17 5 13 3 -3 4 -12 1 -19z m-1520 -20 c-3 -8 -6
-5 -6 6 -1 11 2 17 5 13 3 -3 4 -12 1 -19z m1498 -63 c-9 -31 -19 -55 -21 -53
-2 3 4 30 13 61 9 32 18 56 20 53 2 -2 -3 -29 -12 -61z"/>
<path d="M5717 8593 c-4 -3 -7 -11 -7 -17 0 -6 5 -5 12 2 6 6 9 14 7 17 -3 3
-9 2 -12 -2z"/>
<path d="M6192 8405 c0 -16 2 -22 5 -12 2 9 2 23 0 30 -3 6 -5 -1 -5 -18z"/>
<path d="M6531 8334 c0 -11 3 -14 6 -6 3 7 2 16 -1 19 -3 4 -6 -2 -5 -13z"/>
<path d="M4402 6761 c-14 -19 -18 -32 -11 -36 6 -4 11 -5 12 -4 1 2 10 19 19
37 21 40 9 42 -20 3z"/>
<path d="M4446 6753 c-11 -11 -6 -23 9 -23 8 0 15 4 15 9 0 13 -16 22 -24 14z"/>
<path d="M7440 11144 c-23 -58 2 -104 56 -104 30 0 53 28 33 41 -8 5 -20 9
-26 9 -7 0 -13 9 -13 21 0 25 -17 59 -31 59 -5 0 -14 -12 -19 -26z"/>
<path d="M4467 11153 c-34 -4 -37 -7 -31 -26 12 -40 72 -153 142 -269 39 -63
76 -132 84 -154 13 -38 78 -137 85 -130 6 6 -65 162 -168 369 -63 125 -89 199
-70 195 3 -1 13 2 21 5 8 3 24 8 35 10 24 6 -45 5 -98 0z"/>
<path d="M3930 11095 c-80 -31 -183 -73 -229 -95 l-84 -41 44 -28 c138 -88
208 -227 196 -393 l-5 -78 26 5 c15 2 67 11 116 20 49 8 125 15 170 15 l82 0
17 73 c9 39 36 110 59 157 24 47 44 88 46 91 1 3 -12 21 -30 40 -36 38 -156
180 -207 247 -18 23 -38 42 -44 42 -7 -1 -77 -25 -157 -55z"/>
<path d="M6963 10993 c3 -5 -19 -8 -48 -9 -101 -1 -237 -87 -304 -193 -69
-107 -90 -197 -79 -346 3 -40 3 -40 -37 -45 -31 -4 -41 -10 -43 -25 -4 -31 42
-159 80 -222 50 -84 160 -197 248 -253 l78 -51 4 -74 c3 -73 3 -73 57 -129 40
-43 52 -62 48 -79 -3 -12 -9 -60 -13 -105 -6 -79 -6 -84 12 -80 20 3 21 11 40
214 l7 81 -47 32 -46 32 0 135 c0 129 -10 182 -31 169 -5 -4 -9 -1 -9 5 0 6
-11 15 -25 20 -14 5 -25 14 -25 20 0 13 13 13 28 -2 8 -8 15 -8 26 1 11 9 16
9 21 0 4 -6 1 -15 -6 -20 -10 -6 -7 -10 11 -17 14 -5 29 -7 34 -4 5 3 6 0 2
-6 -7 -11 6 -17 28 -13 5 1 12 -2 15 -6 9 -13 49 -33 65 -33 8 0 16 -6 19 -14
16 -40 114 14 223 123 93 94 136 160 175 273 40 115 40 272 1 266 -9 -2 -26
13 -40 32 -13 19 -29 34 -35 32 -7 -2 -9 0 -5 3 4 4 3 16 -3 27 -8 14 -19 18
-42 16 -27 -2 -33 1 -35 20 l-3 22 -19 -22 -18 -23 -11 29 c-11 27 -12 28 -36
12 -18 -12 -24 -13 -23 -4 2 7 -5 12 -15 12 -13 -2 -15 1 -7 11 8 9 6 14 -6
19 -9 3 -14 12 -11 20 4 10 0 12 -14 9 -11 -3 -19 0 -19 6 0 7 5 9 10 6 6 -3
10 -1 10 5 0 10 -15 8 -56 -7 -7 -2 -15 0 -19 6 -3 6 0 9 7 8 7 -2 10 -2 5 0
-4 3 -5 8 -3 11 2 4 -9 7 -25 7 -27 0 -34 -7 -29 -30 1 -5 -8 -1 -19 9 -15 14
-19 26 -14 44 4 18 1 29 -13 40 -16 12 -16 14 -2 9 10 -3 20 -2 23 4 4 5 3 9
-2 8 -20 -3 -27 2 -13 11 12 8 10 10 -8 10 -13 0 -21 -3 -19 -7z m-228 -792
c3 -5 2 -12 -3 -15 -5 -3 -9 1 -9 9 0 17 3 19 12 6z m50 -50 c-6 -5 -25 10
-25 20 0 5 6 4 14 -3 8 -7 12 -15 11 -17z m26 -34 c-1 -12 -15 -9 -19 4 -3 6
1 10 8 8 6 -3 11 -8 11 -12z"/>
<path d="M2875 10967 c-60 -30 -111 -82 -154 -160 -28 -48 -33 -67 -32 -121 0
-65 22 -130 51 -153 8 -6 13 -13 10 -16 -3 -2 -54 -25 -115 -52 -204 -89 -390
-191 -465 -254 l-35 -29 34 -34 c75 -73 113 -208 92 -324 -18 -95 -54 -158
-114 -198 l-52 -35 -3 25 c-3 24 -4 25 -27 10 -21 -14 -24 -14 -19 -1 4 8 12
15 20 15 8 0 14 5 14 11 0 5 6 7 13 3 8 -6 8 -3 -1 9 -17 20 -22 77 -8 77 5 0
1 8 -10 19 -36 35 -54 61 -58 86 -3 14 0 25 5 25 6 0 9 10 7 23 -6 45 80 89
135 68 18 -7 27 -7 31 2 2 7 5 -1 6 -18 l1 -30 10 25 c28 70 -75 226 -183 279
-149 72 -337 39 -463 -80 -89 -84 -134 -183 -137 -302 -1 -31 -4 -60 -7 -65
-3 -5 -27 -22 -52 -40 -105 -71 -191 -199 -211 -315 -7 -40 -23 -80 -49 -120
-51 -78 -63 -118 -55 -183 8 -72 30 -132 72 -203 41 -69 41 -70 -33 -153 -103
-116 -217 -288 -201 -304 4 -3 31 3 60 14 29 11 98 32 153 47 55 14 117 35
138 45 20 11 37 17 37 14 0 -3 12 9 27 28 137 170 231 214 370 173 113 -34
183 -124 183 -237 0 -73 -26 -130 -85 -188 -25 -24 -45 -50 -45 -57 0 -6 16
-29 35 -50 19 -21 47 -56 62 -78 14 -22 35 -52 45 -68 18 -27 17 -47 -3 -47
-15 0 -117 -77 -178 -134 -141 -133 -229 -307 -231 -458 -1 -40 -4 -81 -6 -90
-7 -24 -64 -24 -142 1 -67 21 -109 47 -165 103 -39 38 -39 43 -20 96 4 8 -1
10 -13 6 -17 -5 -17 -4 -2 5 9 6 15 20 13 31 -2 10 3 24 11 30 16 14 9 31 -10
24 -8 -3 -17 -1 -21 5 -3 6 0 11 7 11 8 0 14 9 15 20 1 11 -2 20 -8 20 -5 0
-9 -8 -9 -17 0 -19 -13 -10 -16 11 -1 8 6 16 17 19 16 4 17 8 6 31 -7 14 -15
26 -19 26 -13 0 -9 -18 7 -34 13 -13 12 -15 -15 -14 -23 1 -28 4 -21 16 5 10
3 31 -5 55 -8 22 -12 42 -9 45 3 3 5 0 5 -7 0 -7 5 -9 10 -6 8 5 7 11 -1 21
-9 11 -6 16 12 23 18 7 19 10 7 10 -10 1 -18 6 -18 12 0 5 -5 7 -10 4 -5 -3
-10 2 -10 11 0 16 1 16 19 0 23 -21 40 -14 38 14 -1 13 -8 20 -20 20 -15 0
-17 3 -8 13 6 8 8 17 4 20 -3 4 7 7 23 7 22 0 26 3 14 10 -13 8 -13 10 2 10 9
0 19 4 22 9 4 5 -3 7 -14 4 -21 -6 -28 11 -9 23 8 4 7 9 -2 15 -11 7 -11 11
-2 17 7 4 12 25 11 47 -1 22 4 41 10 43 14 4 16 32 4 32 -10 0 -13 28 -6 50 4
10 11 6 24 -15 l20 -30 0 38 c0 25 -5 40 -16 44 -8 3 -13 12 -10 19 3 8 1 14
-5 14 -6 0 -3 7 6 16 16 17 13 65 -4 72 -5 1 -6 14 -3 29 3 14 1 24 -4 21 -5
-3 -18 -2 -29 3 -18 7 -18 8 5 8 14 1 32 6 40 11 12 8 9 9 -10 6 -14 -3 -63
-12 -111 -21 -226 -40 -329 -163 -274 -326 l15 -44 -98 -103 c-120 -125 -141
-173 -133 -299 0 -12 13 -34 27 -48 27 -27 27 -27 9 -63 -29 -61 -44 -111 -55
-179 -8 -50 -19 -76 -46 -112 -48 -62 -126 -226 -158 -333 -15 -47 -36 -98
-48 -113 -20 -26 -20 -29 -5 -40 22 -16 22 -22 -8 -61 -26 -34 -32 -50 -15
-39 5 3 19 -28 31 -69 31 -106 48 -120 156 -125 56 -2 86 -7 89 -16 3 -7 -4
-52 -15 -101 -50 -228 -78 -397 -80 -496 -1 -38 -1 -68 1 -68 2 0 25 7 52 15
26 8 89 17 140 21 75 5 101 2 148 -14 81 -27 164 -80 205 -129 20 -24 39 -43
44 -43 5 0 50 16 100 36 51 19 135 47 188 61 53 14 101 29 107 34 6 5 14 31
18 57 8 60 41 117 89 156 31 25 49 31 104 34 62 4 70 2 159 -43 l94 -47 68 56
c90 73 267 252 337 341 147 185 271 412 345 630 43 126 44 134 45 255 0 122
-1 127 -34 193 -39 80 -102 147 -220 232 -134 97 -139 101 -121 119 8 8 42 26
75 40 49 20 61 29 63 50 2 18 -1 26 -12 26 -12 0 -14 10 -9 53 l6 52 -21 -23
c-12 -13 -23 -19 -26 -13 -4 6 -14 7 -22 4 -14 -5 -15 -3 -4 17 8 15 8 20 1
16 -6 -4 -11 -4 -12 1 0 4 -3 21 -5 36 -3 19 -1 26 6 22 6 -3 8 -10 5 -15 -3
-5 4 -15 15 -23 11 -7 18 -16 15 -19 -3 -2 1 -5 9 -5 8 0 11 8 8 19 -3 11 -10
17 -18 14 -10 -4 -14 2 -14 19 0 13 -5 27 -10 30 -7 4 -6 14 2 28 7 12 11 30
9 40 -1 9 3 16 10 15 6 -2 13 2 15 7 2 6 -5 11 -16 11 -13 0 -20 -7 -20 -18 0
-10 -5 -18 -11 -18 -5 0 -8 -4 -5 -9 3 -5 -1 -11 -9 -15 -19 -7 -19 -4 0 41
12 29 13 38 3 45 -7 4 -9 8 -4 8 5 0 3 7 -4 15 -8 10 -9 15 -2 15 6 0 9 6 6
14 -4 9 -15 13 -32 10 -26 -5 -26 -5 -7 10 11 8 24 12 28 9 5 -3 4 4 -2 16 -7
11 -15 20 -19 20 -4 -1 -15 -1 -24 0 -21 1 -24 21 -4 21 11 0 13 13 10 55 -2
36 0 55 7 55 6 0 9 9 6 20 -3 13 1 21 14 25 12 4 19 16 19 32 0 18 -4 24 -15
19 -8 -3 -25 -1 -37 4 -18 7 -19 9 -5 9 10 1 17 9 17 22 0 16 5 20 19 16 14
-3 18 -1 14 9 -3 8 0 27 5 43 7 21 7 31 0 33 -6 2 -3 10 6 17 15 12 16 10 11
-25 -4 -29 -3 -35 4 -24 6 8 11 11 11 5 0 -5 4 -3 9 5 6 8 7 19 4 24 -12 18
-9 58 4 63 14 6 8 23 -8 23 -6 0 -8 -4 -5 -8 2 -4 -4 -9 -15 -9 -10 -1 -19 3
-19 8 0 6 4 8 9 5 5 -3 15 1 22 10 10 13 10 17 0 24 -10 6 -8 10 8 15 11 3 25
3 31 0 5 -3 10 -1 10 4 0 6 6 11 14 11 12 0 41 62 38 80 0 3 5 12 11 20 9 12
9 13 -3 3 -8 -7 -20 -13 -28 -13 -11 0 -12 3 -2 14 9 12 8 15 -7 14 -10 -1
-28 2 -40 6 -12 4 -24 2 -28 -4 -5 -8 -12 -4 -22 9 -8 12 -20 18 -26 15 -7 -4
-9 -4 -5 1 4 4 0 14 -10 21 -15 12 -7 14 53 13 39 -1 75 -6 82 -11 7 -5 14 -5
17 1 5 7 15 7 31 1 14 -5 25 -6 25 -1 0 4 10 13 23 19 20 11 20 11 -7 5 -29
-6 -29 -6 -13 18 16 22 16 24 -5 46 -12 13 -18 26 -15 30 4 3 0 14 -9 24 -9
10 -14 24 -11 31 4 8 6 7 6 -4 1 -19 31 -26 31 -8 0 6 -4 10 -10 10 -5 0 -10
9 -10 21 0 15 -5 19 -15 15 -9 -3 -15 0 -15 10 0 10 6 14 15 10 8 -3 15 -1 15
4 0 6 -6 10 -14 10 -9 0 -14 13 -14 43 1 30 2 35 7 18 5 -19 8 -21 17 -10 6 8
11 29 12 48 2 18 7 42 13 52 8 16 6 19 -13 19 -20 1 -21 2 -6 10 9 6 15 18 14
27 -2 10 -1 12 1 6 3 -7 11 -13 19 -13 8 0 12 5 9 10 -3 6 -2 10 3 10 5 0 7
15 6 33 -3 28 -3 29 4 7 l8 -25 13 23 c14 27 7 44 -16 35 -11 -4 -14 -3 -9 5
4 7 15 12 25 12 20 0 34 14 45 44 5 15 2 17 -13 13 -13 -3 -21 1 -24 13 -3 14
0 17 14 15 12 -3 16 1 12 11 -3 8 0 14 6 14 6 0 11 -7 11 -16 0 -14 2 -14 16
-3 15 12 14 15 -3 29 -18 14 -18 17 -4 41 9 14 34 43 56 63 22 21 34 35 26 31
-10 -6 -12 -2 -7 13 7 22 -26 62 -53 62 -8 0 -11 3 -8 7 4 3 -2 12 -13 20 -10
7 -17 20 -14 27 7 19 -16 32 -28 15 -8 -11 -8 -10 -4 4 3 10 6 21 6 23 0 3 6
2 13 -2 7 -5 7 -1 -2 10 -13 15 -13 19 0 27 10 6 6 9 -16 10 -16 0 -24 3 -16
6 24 10 63 52 56 63 -3 5 -11 7 -19 4 -7 -3 -13 2 -13 11 0 11 6 13 20 9 16
-5 19 -3 13 12 -13 33 -11 39 9 40 11 1 25 2 31 3 6 1 11 11 10 24 -1 17 4 21
23 19 17 -1 22 2 17 13 -3 8 -9 22 -12 30 -3 8 -1 15 6 15 6 0 8 5 4 12 -5 8
0 9 14 6 17 -5 22 -2 22 14 0 12 4 17 12 12 7 -4 8 -3 4 5 -5 8 -12 9 -20 2
-8 -7 -12 -4 -13 10 -1 13 5 19 21 19 12 0 32 9 44 20 23 21 30 36 12 25 -5
-3 -10 1 -10 9 0 9 -6 16 -12 16 -8 0 -6 5 4 10 11 7 14 17 10 32 -5 21 -4 22
13 8 15 -12 17 -12 10 -1 -5 9 -2 19 11 28 18 13 17 14 -8 9 -15 -2 -32 -7
-37 -10 -5 -4 -13 -1 -17 5 -4 7 -3 9 3 6 6 -4 23 5 37 18 32 30 81 52 134 60
29 5 33 4 20 -5 -10 -6 -18 -16 -18 -23 0 -6 -13 -25 -29 -42 -32 -33 -54 -95
-40 -116 11 -18 12 -32 1 -25 -12 7 -8 -36 6 -61 6 -12 12 -28 12 -36 0 -21
73 -93 118 -116 23 -11 78 -31 124 -45 69 -19 86 -28 103 -54 11 -17 27 -31
36 -32 24 0 29 -11 17 -33 -15 -29 13 -47 71 -47 86 0 95 36 12 47 -57 8 -63
18 -52 98 5 36 7 73 5 80 -3 7 -25 20 -50 30 -79 30 -198 160 -210 230 -1 6
-7 37 -14 70 -16 79 -13 126 10 181 21 48 42 74 59 74 6 0 11 10 11 23 0 14 3
18 8 10 6 -9 11 -8 22 6 7 11 18 17 25 15 14 -6 99 32 121 53 11 11 30 17 53
15 30 -1 33 0 16 8 -16 9 -14 9 12 5 40 -5 65 3 56 19 -4 7 -1 6 9 -2 12 -10
18 -10 27 2 27 32 -150 27 -217 -7 -43 -22 -75 -41 -90 -55 -11 -10 -19 -9
-40 7 -31 22 -58 48 -75 74 -9 13 -30 20 -72 23 -49 4 -69 1 -110 -19z m-90
-487 c3 -5 1 -10 -4 -10 -6 0 -11 5 -11 10 0 6 2 10 4 10 3 0 8 -4 11 -10z
m-5 -50 c0 -5 -5 -10 -11 -10 -5 0 -7 5 -4 10 3 6 8 10 11 10 2 0 4 -4 4 -10z
m-75 -90 c3 -5 1 -10 -4 -10 -6 0 -11 5 -11 10 0 6 2 10 4 10 3 0 8 -4 11 -10z
m-68 -126 c-3 -3 -12 -4 -19 -1 -8 3 -5 6 6 6 11 1 17 -2 13 -5z m-563 -123
c26 -29 17 -73 -18 -90 -43 -20 -80 -5 -84 36 -6 60 64 97 102 54z m501 -481
c3 -5 1 -10 -4 -10 -6 0 -11 5 -11 10 0 6 2 10 4 10 3 0 8 -4 11 -10z m-510
-29 c4 -10 -1 -12 -17 -7 -13 3 -29 6 -36 6 -7 0 -11 4 -8 9 9 14 55 8 61 -8z
m-49 -20 c-5 -8 -56 -3 -56 5 0 2 14 4 31 4 16 0 28 -4 25 -9z m-76 -220 c0
-6 -22 -38 -48 -73 -27 -35 -68 -92 -92 -128 -31 -46 -46 -60 -48 -47 -13 65
109 257 164 257 13 0 24 -4 24 -9z m566 -243 c4 -7 3 -8 -4 -4 -7 4 -12 2 -12
-3 0 -6 -5 -11 -11 -11 -8 0 -8 5 1 15 15 18 17 18 26 3z m-149 -144 c-3 -3
-12 -4 -19 -1 -8 3 -5 6 6 6 11 1 17 -2 13 -5z m83 -18 c0 -3 -4 -8 -10 -11
-5 -3 -10 -1 -10 4 0 6 5 11 10 11 6 0 10 -2 10 -4z m-20 -30 c0 -3 -4 -8 -10
-11 -5 -3 -10 -1 -10 4 0 6 5 11 10 11 6 0 10 -2 10 -4z m-140 -351 c0 -2 -7
-5 -15 -9 -9 -3 -15 0 -15 9 0 9 6 12 15 9 8 -4 15 -7 15 -9z m18 -300 c-2 -1
-13 -8 -25 -14 -19 -10 -22 -9 -17 4 3 8 10 12 15 9 5 -3 9 0 9 6 0 6 5 8 11
5 6 -4 9 -8 7 -10z m-1188 -20 c11 -13 10 -14 -4 -9 -9 3 -16 10 -16 15 0 13
6 11 20 -6z m1320 -335 c0 -5 -4 -10 -10 -10 -5 0 -10 5 -10 10 0 6 5 10 10
10 6 0 10 -4 10 -10z m-1318 -254 c7 4 8 2 4 -5 -9 -13 -26 -5 -25 12 0 9 2 8
6 -1 2 -6 10 -9 15 -6z m1051 -63 c41 -93 57 -161 64 -263 5 -89 -4 -277 -13
-267 -2 2 -5 60 -6 128 -1 68 -5 140 -10 159 -5 19 -13 58 -18 85 -4 28 -22
80 -39 117 -28 61 -32 98 -11 98 4 0 19 -26 33 -57z m-1074 26 c-16 -10 -23
-4 -14 10 3 6 11 8 17 5 6 -4 5 -9 -3 -15z m386 -463 c65 -27 85 -110 36 -145
-40 -29 -86 -27 -116 4 -36 35 -37 107 -2 136 27 22 38 23 82 5z m-35 -686
c45 -45 45 -94 2 -134 -26 -23 -63 -16 -98 19 -32 32 -32 78 1 110 29 30 68
32 95 5z m34 -212 c18 -17 26 -35 28 -65 3 -48 -13 -58 -24 -15 -4 16 -17 37
-28 47 -20 19 -28 55 -11 55 6 0 21 -10 35 -22z"/>
<path d="M7203 10820 c5 -31 17 -36 17 -7 0 15 -4 27 -10 27 -5 0 -9 -9 -7
-20z"/>
<path d="M1938 10743 c-27 -28 -48 -72 -48 -98 0 -18 48 -51 87 -60 28 -6 37
-2 63 23 32 33 39 62 15 62 -25 0 -65 46 -65 75 0 33 -20 32 -52 -2z"/>
<path d="M3690 10249 c-30 -17 -91 -40 -135 -50 -44 -11 -84 -24 -89 -29 -14
-14 2 -60 22 -60 19 0 93 24 132 42 57 27 142 109 128 123 -2 2 -28 -10 -58
-26z"/>
<path d="M2677 10197 c-3 -8 1 -14 8 -14 7 0 11 6 8 14 -3 7 -6 13 -8 13 -2 0
-5 -6 -8 -13z"/>
<path d="M2640 10169 c0 -5 5 -7 10 -4 6 3 10 8 10 11 0 2 -4 4 -10 4 -5 0
-10 -5 -10 -11z"/>
<path d="M5770 10120 c-8 -5 -12 -12 -9 -15 4 -3 12 1 19 10 14 17 11 19 -10
5z"/>
<path d="M2610 10030 c0 -5 7 -10 16 -10 8 0 12 5 9 10 -3 6 -10 10 -16 10 -5
0 -9 -4 -9 -10z"/>
<path d="M3223 10018 c-20 -26 -86 -216 -99 -283 -7 -40 6 -50 73 -59 57 -7
107 7 133 38 8 10 25 22 38 27 38 14 20 33 -44 47 -92 21 -107 29 -100 55 18
70 29 168 20 177 -8 8 -14 7 -21 -2z"/>
<path d="M7417 10004 c-3 -3 -3 -13 0 -22 4 -9 2 -13 -4 -9 -14 9 -89 -67
-113 -113 -96 -192 -16 -457 198 -650 62 -55 65 -61 64 -100 -1 -23 3 -50 8
-60 22 -40 28 -147 17 -297 -12 -178 -10 -183 63 -183 84 0 105 13 131 83 18
50 24 90 28 202 l6 140 83 100 c111 134 119 142 177 179 138 87 226 290 201
460 -6 41 -11 48 -42 61 -20 8 -39 26 -46 42 -7 15 -20 38 -29 50 -14 20 -17
20 -31 6 -12 -11 -17 -12 -23 -2 -6 8 -4 10 5 4 8 -5 11 -4 7 3 -9 13 -47 4
-47 -12 0 -6 -5 -3 -11 7 -10 17 -12 17 -29 2 -15 -14 -22 -14 -40 -5 -18 9
-21 9 -15 0 6 -10 -7 -11 -55 -7 -34 3 -65 9 -69 15 -7 10 -41 8 -50 -5 -9
-12 -34 -15 -26 -3 3 5 -1 10 -10 10 -9 0 -14 4 -11 8 6 10 -80 10 -90 0 -12
-13 -36 -9 -56 9 -15 14 -18 14 -13 2 4 -10 0 -16 -9 -16 -8 0 -12 6 -8 15 3
10 1 13 -6 8 -7 -4 -16 3 -24 18 -8 18 -15 23 -23 16 -8 -7 -18 -3 -32 10 -18
16 -22 17 -27 4 -3 -8 -10 -12 -16 -9 -6 4 -8 11 -5 16 4 5 -1 9 -10 9 -9 0
-13 5 -10 10 7 11 2 14 -8 4z"/>
<path d="M2525 9390 c-3 -5 1 -10 9 -10 9 0 16 5 16 10 0 6 -4 10 -9 10 -6 0
-13 -4 -16 -10z"/>
<path d="M2497 9153 c-11 -10 -8 -20 6 -20 8 0 14 6 14 14 0 14 -10 17 -20 6z"/>
<path d="M858 9030 c-37 -38 -85 -96 -106 -127 -60 -90 -158 -282 -180 -354
-35 -115 -39 -219 -9 -219 7 0 32 14 57 30 25 16 52 30 61 30 13 0 18 20 28
103 7 56 19 128 27 161 25 96 103 263 165 349 32 44 56 85 53 89 -11 18 -32 5
-96 -62z"/>
<path d="M2715 9060 c-3 -5 -1 -10 4 -10 6 0 11 5 11 10 0 6 -2 10 -4 10 -3 0
-8 -4 -11 -10z"/>
<path d="M2463 9005 c0 -8 4 -12 9 -9 5 3 6 10 3 15 -9 13 -12 11 -12 -6z"/>
<path d="M2370 8816 c0 -2 8 -10 18 -17 15 -13 16 -12 3 4 -13 16 -21 21 -21
13z"/>
<path d="M8375 8680 c3 -5 8 -10 11 -10 2 0 4 5 4 10 0 6 -5 10 -11 10 -5 0
-7 -4 -4 -10z"/>
<path d="M8400 8650 c13 -9 13 -12 0 -23 -8 -7 -21 -23 -28 -36 -11 -19 -11
-22 0 -15 7 4 4 -2 -6 -14 -11 -12 -27 -22 -37 -22 -26 0 -43 -34 -24 -50 26
-22 -2 -93 -32 -83 -18 6 -53 -16 -53 -32 0 -8 -5 -15 -11 -15 -8 0 -8 -5 1
-15 15 -19 34 -20 27 -2 -3 8 1 14 9 14 9 0 13 -6 9 -14 -3 -8 -5 -19 -5 -24
0 -16 -28 -10 -35 9 -6 16 -7 16 -16 -1 -6 -9 -7 -23 -2 -30 20 -33 11 -60
-24 -71 -17 -6 -22 -4 -17 7 4 12 -5 14 -46 8 -3 -1 -6 -10 -6 -20 0 -15 4
-17 17 -10 12 6 19 4 23 -7 8 -22 -1 -34 -21 -27 -9 4 -21 -1 -29 -12 -13 -17
-14 -15 -14 23 0 24 -5 42 -11 42 -6 0 -9 -9 -6 -20 3 -11 1 -23 -4 -26 -6 -4
-6 -11 1 -19 7 -9 8 -14 0 -17 -6 -2 1 -19 14 -39 14 -20 22 -39 19 -43 -4 -3
0 -6 7 -6 7 0 11 -3 8 -6 -4 -3 0 -20 7 -38 8 -18 19 -62 24 -97 8 -46 21 -78
47 -117 l37 -53 26 24 c108 101 269 87 371 -32 42 -48 47 -51 78 -45 40 8 40
8 -20 164 -59 153 -60 139 16 211 40 38 64 69 61 77 -8 21 -130 214 -197 311
-86 126 -146 201 -160 201 -9 0 -8 -4 2 -10z"/>
<path d="M2403 8635 c-3 -9 -3 -18 -1 -21 3 -3 8 4 11 16 6 23 -1 27 -10 5z"/>
<path d="M2391 8564 c0 -11 3 -14 6 -6 3 7 2 16 -1 19 -3 4 -6 -2 -5 -13z"/>
<path d="M1195 8510 c-16 -7 -17 -9 -3 -9 9 -1 20 4 23 9 7 11 7 11 -20 0z"/>
<path d="M2300 8482 c0 -11 5 -24 10 -27 6 -4 9 2 7 14 -4 29 -17 39 -17 13z"/>
<path d="M7315 8491 c-3 -5 -1 -12 5 -16 5 -3 10 1 10 9 0 18 -6 21 -15 7z"/>
<path d="M8260 8430 c0 -5 5 -10 10 -10 6 0 10 5 10 10 0 6 -4 10 -10 10 -5 0
-10 -4 -10 -10z"/>
<path d="M2280 8426 c0 -2 9 -6 20 -9 11 -3 18 -1 14 4 -5 9 -34 13 -34 5z"/>
<path d="M9115 8294 c-32 -15 -135 -15 -135 0 0 5 -9 1 -21 -10 -96 -87 -42
-253 88 -271 78 -10 177 64 189 143 8 58 -1 90 -36 125 -32 32 -41 34 -85 13z"/>
<path d="M8170 8290 c0 -6 7 -10 15 -10 8 0 15 2 15 4 0 2 -7 6 -15 10 -8 3
-15 1 -15 -4z"/>
<path d="M2370 8240 c0 -11 2 -20 4 -20 2 0 6 9 9 20 3 11 1 20 -4 20 -5 0 -9
-9 -9 -20z"/>
<path d="M7631 8132 c10 -43 20 -90 23 -105 2 -15 8 -31 11 -37 4 -6 11 -25
16 -43 l9 -32 -18 23 -18 23 4 -35 c4 -33 6 -35 26 -24 11 6 23 10 26 9 7 -4
49 100 50 122 0 10 5 15 11 12 6 -4 9 -1 7 7 -1 7 8 24 21 37 19 19 21 25 10
33 -10 7 -8 8 7 4 25 -8 50 19 51 54 1 14 -1 19 -4 13 -3 -7 -13 -13 -24 -13
-24 0 -25 -27 -1 -33 9 -3 5 -4 -10 -4 -16 1 -28 7 -28 15 0 10 -5 10 -20 2
-11 -6 -18 -16 -15 -23 4 -7 -2 -2 -13 10 -17 19 -21 20 -34 6 -11 -10 -18
-11 -22 -4 -4 6 -2 11 3 11 6 0 11 7 11 15 0 8 -5 15 -12 15 -6 0 -8 -3 -5 -7
9 -8 -12 -33 -27 -33 -6 0 -17 14 -24 30 -25 54 -30 31 -11 -48z"/>
<path d="M2386 8172 c-3 -5 -1 -22 4 -38 9 -28 9 -28 7 9 -1 39 -3 42 -11 29z"/>
<path d="M1140 8085 c0 -8 5 -15 10 -15 6 0 10 7 10 15 0 8 -4 15 -10 15 -5 0
-10 -7 -10 -15z"/>
<path d="M2385 8090 c-3 -5 1 -10 9 -10 9 0 16 5 16 10 0 6 -4 10 -9 10 -6 0
-13 -4 -16 -10z"/>
<path d="M7381 7967 c-1 -11 -6 -15 -13 -11 -6 4 -8 3 -5 -4 5 -7 16 -7 37 1
19 7 25 14 17 19 -6 4 -14 2 -18 -4 -4 -7 -8 -6 -12 3 -4 10 -6 8 -6 -4z"/>
<path d="M357 7940 c-22 -37 -21 -61 4 -105 25 -42 58 -59 92 -46 44 17 117
106 117 144 0 16 -3 16 -37 -3 -55 -29 -99 -26 -132 9 l-28 29 -16 -28z"/>
<path d="M7411 7937 c-14 -14 -14 -47 -1 -47 6 0 10 -7 10 -16 0 -8 8 -23 17
-32 16 -16 16 -16 10 1 -6 17 7 24 17 8 3 -4 17 -6 32 -3 19 3 22 7 12 13 -19
13 7 28 36 22 17 -4 18 -3 6 6 -13 9 -11 11 7 11 12 0 24 4 27 9 7 11 -45 1
-62 -12 -7 -5 -15 -7 -19 -3 -3 3 -1 6 6 6 7 0 9 5 6 10 -4 6 -11 8 -16 4 -5
-3 -25 3 -43 14 -25 15 -37 17 -45 9z m24 -27 c3 -5 2 -10 -4 -10 -5 0 -13 5
-16 10 -3 6 -2 10 4 10 5 0 13 -4 16 -10z"/>
<path d="M1110 7825 c0 -8 5 -15 10 -15 6 0 10 7 10 15 0 8 -4 15 -10 15 -5 0
-10 -7 -10 -15z"/>
<path d="M1081 7821 c-10 -6 -10 -10 -1 -16 13 -8 24 -1 19 14 -3 6 -10 7 -18
2z"/>
<path d="M8380 7750 c0 -5 -11 -10 -25 -10 -14 0 -24 -3 -24 -7 1 -5 1 -15 0
-23 -1 -13 -3 -13 -10 -1 -8 13 -12 13 -27 0 -9 -8 -36 -14 -58 -14 -39 0 -42
-2 -66 -50 -31 -62 -34 -163 -6 -244 20 -57 78 -124 132 -152 36 -19 40 -31
49 -166 4 -51 12 -98 19 -106 6 -8 28 -18 49 -21 31 -6 41 -3 62 18 13 13 27
37 30 53 4 15 11 36 16 46 5 10 9 66 8 125 -1 93 1 108 17 117 40 23 103 98
118 142 21 62 19 106 -8 178 -20 53 -29 63 -73 87 -55 30 -182 51 -168 28 6
-9 3 -9 -14 -1 -14 8 -21 8 -21 1z"/>
<path d="M1145 7691 c-3 -5 -2 -12 3 -15 5 -3 9 1 9 9 0 17 -3 19 -12 6z"/>
<path d="M9120 7561 c0 -6 5 -13 10 -16 6 -3 10 -14 10 -24 0 -29 34 -53 71
-49 57 5 49 33 -20 68 -66 33 -71 34 -71 21z"/>
<path d="M5800 7383 c-65 -6 -101 -14 -95 -22 2 -5 -3 -8 -13 -7 -9 0 -18 -6
-18 -14 -5 -55 -6 -56 -13 -30 -7 23 -8 22 -12 -12 -3 -20 -1 -34 3 -32 4 3 8
-1 9 -8 0 -7 4 -4 9 7 8 19 9 19 9 1 1 -15 4 -16 16 -6 11 9 15 9 15 1 0 -8 6
-9 18 -2 26 14 34 14 43 -1 6 -8 12 -9 17 -3 10 13 281 19 326 7 25 -7 36 -7
40 1 3 8 8 7 15 -3 5 -8 12 -12 15 -9 23 23 -120 114 -194 123 -64 8 -149 12
-190 9z"/>
<path d="M6198 7314 c6 -11 21 -31 35 -46 16 -17 21 -29 14 -31 -7 -3 -2 -4
10 -4 21 1 22 2 7 27 -12 19 -8 18 16 -8 17 -18 35 -30 39 -27 5 3 11 2 13 -3
4 -9 78 -53 78 -46 0 27 -88 124 -106 117 -12 -4 -12 -8 -2 -22 7 -9 -2 -3
-20 13 -19 18 -32 24 -32 16 0 -10 -4 -10 -17 2 -33 28 -46 32 -35 12z"/>
<path d="M6192 7275 c6 -14 15 -25 20 -25 5 0 1 11 -8 25 -9 14 -18 25 -20 25
-2 0 2 -11 8 -25z"/>
<path d="M9017 7216 c-28 -73 18 -177 95 -215 24 -11 50 -21 56 -21 22 0 12
15 -20 33 -43 23 -76 73 -103 154 -15 48 -23 62 -28 49z"/>
<path d="M5781 7100 c-45 -21 -181 -108 -181 -116 0 -7 38 14 85 46 47 32 120
70 155 81 20 6 21 7 5 8 -11 0 -40 -8 -64 -19z"/>
<path d="M5910 7082 c-45 -4 -122 -28 -181 -58 -41 -20 -48 -29 -62 -76 -23
-73 -28 -128 -12 -128 9 0 11 8 7 23 -5 20 -4 21 11 8 9 -7 17 -19 17 -26 0
-6 7 -12 15 -12 13 0 13 3 2 16 -23 26 -26 48 -12 68 13 17 14 16 15 -9 0 -14
12 -40 26 -57 49 -58 195 -79 259 -37 32 21 75 109 75 153 0 30 2 32 23 22 34
-15 71 -76 71 -116 0 -30 2 -32 12 -18 11 15 18 16 45 6 41 -14 44 -14 29 4
-11 13 -6 15 34 15 25 0 46 2 46 5 0 6 -44 58 -87 103 l-32 33 32 -6 c40 -9
36 -4 -35 33 -53 29 -192 62 -243 58 -11 0 -36 -2 -55 -4z m58 -104 c3 -14 -3
-18 -27 -18 -31 0 -47 13 -36 31 11 16 59 6 63 -13z"/>
<path d="M9276 6577 c-12 -9 -20 -30 -23 -64 -5 -46 -3 -51 27 -76 42 -36 62
-34 109 8 69 62 64 117 -11 128 -24 4 -52 9 -63 12 -11 3 -28 0 -39 -8z"/>
<path d="M7686 6499 c-6 -31 6 -91 23 -118 12 -18 30 -5 46 32 12 29 11 34
-16 65 -16 18 -29 37 -29 42 0 24 -18 7 -24 -21z"/>
<path d="M4925 6450 c-3 -5 -3 -10 0 -10 3 0 -3 -9 -14 -21 -24 -26 -77 -165
-92 -243 -9 -45 -9 -73 0 -124 25 -135 76 -168 219 -141 44 9 58 17 89 55 42
50 60 58 94 45 20 -7 29 -3 55 25 37 40 82 45 120 15 24 -19 58 -18 70 1 4 6
1 14 -5 18 -9 5 -8 10 4 20 21 17 19 27 -9 45 -22 14 -27 15 -58 1 -18 -9 -44
-24 -58 -35 -14 -11 -38 -23 -55 -27 -27 -6 -28 -5 -17 8 11 14 5 25 -42 76
-31 32 -76 70 -101 83 l-46 24 -19 -25 c-27 -35 -25 -58 5 -66 32 -8 32 -18 0
-32 -14 -7 -30 -23 -37 -37 -10 -23 -46 -36 -49 -17 -6 33 -5 51 2 46 9 -5 13
9 9 36 -1 8 -10 22 -20 30 -49 39 -39 115 20 148 41 23 35 49 -17 77 -23 12
-40 25 -36 29 3 3 4 6 0 6 -3 0 -9 -4 -12 -10z"/>
<path d="M7655 6277 c-9 -45 -3 -90 13 -95 9 -3 12 13 12 57 0 67 -16 90 -25
38z"/>
<path d="M8264 6273 c-30 -6 -49 -48 -49 -108 1 -67 28 -114 76 -130 l36 -13
11 47 c18 69 26 121 26 166 1 40 1 40 -39 41 -22 1 -49 0 -61 -3z"/>
<path d="M4115 6257 c-5 -7 -11 -23 -13 -36 -2 -18 2 -22 14 -17 8 3 18 6 20
6 2 0 4 7 4 15 0 8 9 15 20 15 14 0 18 5 13 16 -5 13 -7 13 -14 2 -7 -10 -9
-10 -9 0 0 15 -22 15 -35 -1z"/>
<path d="M4080 6145 c0 -9 6 -12 15 -9 8 4 15 7 15 9 0 2 -7 5 -15 9 -9 3 -15
0 -15 -9z"/>
<path d="M4108 6042 c-21 -4 -21 -7 -8 -33 10 -18 31 -27 29 -11 -3 19 2 26
10 13 7 -10 5 -18 -4 -25 -8 -6 -16 -35 -19 -68 -4 -46 -2 -56 10 -51 9 3 14
-1 14 -12 0 -9 -4 -13 -10 -10 -6 3 -7 -1 -4 -9 3 -9 11 -13 16 -10 6 4 7 -2
3 -16 -5 -15 -4 -20 4 -16 7 5 11 -3 11 -22 0 -16 7 -48 14 -71 8 -22 13 -50
11 -61 -3 -18 5 -25 28 -21 4 0 7 -4 7 -9 0 -6 12 -22 26 -35 15 -14 24 -25
20 -25 -4 0 0 -7 9 -16 11 -12 13 -20 6 -27 -16 -16 -13 -31 2 -18 16 13 27 5
27 -20 0 -9 7 -19 15 -23 21 -8 35 -48 23 -63 -13 -16 -38 -16 -75 -1 -15 6
-31 11 -35 10 -4 -1 -23 5 -42 13 -20 9 -36 12 -36 8 0 -5 -5 0 -11 10 -5 9
-15 17 -20 17 -6 0 -22 9 -36 20 -44 34 -50 27 -44 -47 3 -38 5 -90 6 -118 l0
-49 -60 -32 c-60 -33 -117 -42 -145 -24 -13 8 -12 15 8 49 20 37 29 71 17 71
-2 0 -27 -9 -54 -20 -27 -10 -87 -25 -133 -31 -71 -10 -93 -10 -155 4 -129 30
-198 17 -238 -46 -23 -35 -47 -45 -123 -46 -29 -1 -69 -8 -89 -16 -19 -8 -48
-15 -64 -15 -15 0 -40 -4 -54 -10 -24 -9 -26 -13 -20 -54 9 -55 -7 -67 -71
-54 -47 10 -95 -5 -76 -24 28 -28 82 -35 175 -21 162 25 433 2 505 -43 23 -15
30 -34 12 -34 -6 0 -34 -16 -62 -35 -50 -33 -74 -33 -61 2 9 24 -22 13 -59
-21 -44 -41 -59 -83 -34 -101 21 -16 21 -22 -12 -85 -22 -44 -32 -56 -55 -58
-21 -3 -27 -9 -27 -27 0 -29 -26 -45 -74 -45 -25 0 -38 -6 -46 -19 -5 -11 -24
-22 -42 -26 -18 -3 -62 -15 -98 -27 -36 -11 -76 -22 -90 -24 -14 -2 -49 -12
-77 -21 -58 -19 -80 -11 -69 23 8 22 158 139 220 171 l41 21 -35 4 -35 3 0 71
c0 47 6 84 19 112 11 23 16 46 12 50 -12 11 -104 -98 -122 -145 -9 -24 -20
-43 -24 -43 -3 0 -14 16 -23 36 -14 29 -20 34 -32 24 -7 -6 -17 -26 -20 -43
-4 -18 -14 -43 -23 -57 -9 -14 -38 -67 -64 -119 -27 -51 -67 -124 -89 -161
-46 -77 -53 -111 -33 -159 19 -46 18 -55 -12 -90 -41 -49 -54 -41 -54 33 0 46
-4 65 -14 69 -27 11 -29 90 -7 225 12 71 21 147 21 168 0 38 0 38 -19 19 -10
-11 -39 -51 -64 -90 -59 -92 -109 -164 -124 -180 -7 -7 -10 -15 -8 -17 2 -2
-16 -28 -40 -58 -25 -30 -45 -58 -45 -62 0 -4 -9 -16 -21 -27 -11 -10 -22 -27
-23 -37 -1 -11 -12 -23 -23 -28 -11 -5 -29 -22 -39 -37 -10 -15 -22 -25 -28
-22 -5 3 -6 1 -2 -6 5 -7 -3 -22 -18 -36 -15 -14 -26 -35 -26 -49 l0 -25 57
20 c65 22 104 24 55 3 -19 -8 -43 -23 -54 -34 -20 -19 -20 -19 0 -14 11 3 23
1 26 -5 4 -6 2 -11 -4 -11 -6 0 -8 -5 -5 -11 4 -5 -1 -19 -10 -29 -10 -11 -15
-26 -12 -35 4 -8 2 -15 -4 -15 -6 0 -7 -5 -4 -10 3 -6 0 -13 -9 -16 -8 -3 -13
-14 -11 -25 2 -11 -2 -22 -8 -25 -7 -2 -14 -19 -15 -36 -2 -18 -6 -35 -10 -38
-4 -3 -8 -14 -7 -25 0 -11 -6 -26 -13 -33 -7 -8 -10 -18 -7 -22 3 -5 -7 -5
-23 1 -39 13 -75 86 -80 162 -3 31 -7 57 -11 57 -19 -1 -32 -22 -45 -74 -9
-33 -22 -69 -30 -81 -35 -54 -18 -137 56 -273 66 -122 67 -125 62 -134 -8 -12
-42 9 -111 70 -35 30 -63 49 -63 43 0 -6 4 -11 9 -11 5 0 8 -6 7 -12 -3 -21
-17 -39 -25 -33 -5 2 -8 -18 -7 -46 0 -30 -4 -55 -12 -61 -10 -9 -9 -15 3 -34
10 -16 11 -25 4 -30 -6 -3 -9 -19 -5 -35 l6 -29 -52 35 c-29 19 -54 32 -57 30
-2 -3 9 -28 24 -57 24 -44 28 -63 27 -122 -1 -57 -5 -73 -23 -90 -12 -12 -19
-15 -15 -9 8 15 -42 85 -54 78 -5 -3 -10 -1 -12 4 -1 5 -9 3 -16 -5 -7 -8 -8
-14 -2 -14 5 0 10 -4 10 -9 0 -10 -14 -9 -44 4 -12 5 -21 5 -23 -2 -2 -5 -10
-19 -18 -29 -13 -17 -14 -18 -15 -1 0 23 -12 22 -30 -3 -8 -11 -20 -20 -27
-20 -7 0 -13 -4 -13 -9 0 -5 -9 -11 -21 -14 -19 -5 -20 -4 -4 19 15 24 15 24
-4 12 -11 -6 -19 -14 -19 -17 2 -22 -5 -31 -22 -31 -11 0 -20 7 -20 15 0 8 -4
15 -9 15 -5 0 -8 -11 -6 -25 1 -16 -3 -25 -11 -25 -8 0 -14 5 -14 10 0 6 -5
10 -11 10 -5 0 -7 -4 -4 -10 9 -14 -8 -13 -23 2 -15 15 -42 19 -42 7 0 -5 7
-12 15 -15 17 -7 21 -34 5 -34 -5 0 -10 -6 -10 -14 0 -8 -4 -18 -10 -21 -6 -4
-7 5 -4 23 7 33 -4 46 -26 31 -13 -7 -12 -9 3 -9 9 0 17 -5 17 -11 0 -5 -5 -7
-12 -3 -7 4 -8 3 -4 -5 10 -16 -21 -26 -38 -12 -8 7 -20 10 -27 9 -8 -2 -13 3
-12 10 2 6 -3 12 -10 12 -20 1 -59 90 -64 150 -3 32 1 83 10 120 l15 65 -26
-32 c-34 -40 -79 -150 -93 -228 -15 -82 -6 -297 15 -355 26 -70 43 -103 65
-127 12 -12 21 -25 21 -29 0 -22 124 -94 163 -94 9 0 17 -5 17 -11 0 -6 7 -9
15 -6 8 4 17 3 19 -2 3 -4 19 -6 36 -3 16 2 36 -1 44 -7 9 -8 16 -8 20 -2 11
17 36 0 36 -23 0 -13 11 -33 25 -46 14 -13 25 -29 25 -36 0 -7 8 -18 18 -23 9
-6 14 -11 9 -11 -10 0 63 -70 74 -70 5 0 9 -4 9 -9 0 -4 28 -28 61 -52 34 -24
68 -50 75 -57 8 -7 14 -11 14 -7 0 4 12 -8 28 -26 22 -27 27 -42 26 -83 -5
-238 -5 -233 16 -279 19 -41 24 -44 54 -42 l33 2 -5 -106 c-5 -124 9 -186 64
-277 68 -112 175 -195 309 -239 11 -3 20 -6 20 -5 0 1 18 -5 40 -13 68 -26
205 -56 305 -67 52 -5 106 -12 120 -15 14 -3 48 -9 75 -14 60 -10 148 -34 155
-41 7 -7 87 -30 127 -37 32 -5 37 -2 97 68 16 19 52 27 42 10 -9 -14 97 -18
111 -5 10 10 10 13 0 17 -9 4 -9 6 0 6 7 1 10 8 7 16 -4 8 -10 12 -15 9 -5 -3
-9 -1 -9 4 0 11 30 25 38 17 3 -3 0 -5 -6 -5 -6 0 -9 -6 -6 -13 6 -16 74 -22
74 -7 0 6 4 9 9 6 5 -3 11 0 14 7 4 10 -3 12 -25 9 -19 -3 -28 -1 -25 5 4 6
32 9 64 8 63 -2 83 2 83 17 0 5 -4 6 -10 3 -13 -8 -13 5 0 25 6 10 10 11 10 3
0 -7 6 -13 14 -13 8 0 17 -6 19 -12 4 -10 6 -10 6 0 1 6 5 12 10 12 5 0 7 -16
4 -35 -4 -29 -1 -35 14 -35 13 0 14 3 5 8 -17 11 -6 39 19 45 21 6 26 -12 8
-30 -7 -7 -7 -13 -1 -17 6 -3 13 7 17 23 5 24 12 30 41 33 19 2 34 0 34 -4 0
-4 5 -8 11 -8 5 0 7 5 4 10 -9 15 8 12 34 -7 14 -9 21 -11 17 -5 -11 17 17 15
40 -4 18 -14 18 -15 -6 -9 -14 4 -20 3 -14 -2 6 -4 13 -16 17 -26 6 -15 3 -17
-13 -12 -18 6 -19 4 -10 -19 5 -14 6 -26 1 -26 -5 0 -17 -12 -27 -27 -15 -24
-15 -26 -1 -14 15 12 17 11 17 -3 0 -11 4 -14 13 -10 8 5 7 2 -2 -9 -11 -13
-17 -15 -28 -6 -7 7 -17 9 -20 5 -4 -4 -1 -11 6 -15 9 -6 10 -11 2 -15 -18
-11 -13 -26 8 -26 11 0 23 -4 26 -10 3 -5 24 -10 46 -10 38 0 167 -24 199 -37
20 -9 33 -11 114 -18 38 -3 73 -8 77 -11 7 -4 274 -16 317 -14 20 1 52 1 147
1 82 0 226 6 316 13 19 1 41 6 47 10 7 4 16 5 20 2 4 -2 71 7 147 20 77 14
154 27 172 29 17 2 63 14 101 25 38 12 79 22 90 23 12 1 22 4 22 7 0 3 11 7
25 8 13 1 52 12 87 25 113 42 133 49 161 54 15 3 27 9 27 14 0 5 6 6 14 3 8
-3 24 0 36 6 12 6 34 14 48 16 15 3 31 9 37 13 5 5 18 7 28 6 9 -2 15 1 11 6
-3 5 6 9 20 9 13 0 31 7 40 15 8 8 21 15 28 15 8 0 23 7 34 15 10 8 26 15 34
15 8 0 38 11 65 25 28 13 58 25 67 25 9 0 20 5 23 11 4 5 12 8 18 6 6 -2 21 5
31 15 11 10 26 16 33 14 6 -3 13 -2 15 2 4 10 110 62 126 62 6 0 12 5 12 12 0
6 3 9 6 5 3 -3 11 -1 18 4 6 5 35 25 64 43 53 34 53 34 31 50 -12 8 -27 12
-33 8 -6 -3 -3 6 7 21 9 14 17 34 17 43 0 13 3 14 13 5 18 -14 30 -2 16 16 -9
10 -6 13 12 14 13 0 18 3 11 6 -17 7 -5 23 18 23 10 0 20 3 22 8 2 4 23 17 48
29 69 34 278 144 345 182 33 19 143 89 245 156 183 121 287 200 449 343 110
97 121 102 160 69 43 -36 94 -50 160 -45 89 7 143 39 257 151 56 56 134 132
171 169 113 110 150 203 141 359 -7 118 -37 190 -106 256 -58 56 -72 62 -92
38 -29 -35 -112 0 -96 41 9 24 -10 34 -66 34 -67 0 -62 14 30 87 52 41 53 41
87 27 57 -23 123 -18 180 15 28 16 60 39 73 51 12 11 27 18 32 15 6 -3 10 0
10 7 0 8 9 14 20 14 11 0 20 -4 20 -9 0 -5 10 -7 23 -5 12 2 21 9 19 16 -1 8
2 11 7 8 18 -11 71 -13 78 -3 3 5 1 7 -5 3 -5 -3 -12 -3 -14 1 -1 5 -21 17
-42 28 -48 24 -118 94 -153 153 -42 71 -55 121 -54 213 0 98 18 158 164 554
80 218 159 509 207 757 67 352 116 958 77 958 -7 0 -46 -10 -87 -22 -61 -18
-101 -22 -210 -23 -151 0 -199 12 -312 79 l-58 35 -37 -42 c-139 -153 -287
-278 -379 -317 -49 -21 -73 -18 -53 6 18 22 7 25 -46 9 -147 -45 -275 6 -346
137 -31 58 -33 70 -34 151 l0 89 -17 -39 c-12 -26 -18 -65 -18 -124 0 -100 -4
-106 -83 -124 -33 -7 -53 -17 -55 -27 -5 -26 56 -170 94 -221 25 -34 69 -70
152 -124 141 -91 187 -132 218 -198 26 -54 29 -95 13 -165 -15 -69 -46 -104
-144 -168 -108 -71 -178 -143 -211 -217 -23 -53 -25 -55 -62 -55 -56 0 -136
-27 -172 -57 -69 -58 -95 -177 -57 -265 36 -86 71 -113 258 -209 349 -177 432
-256 433 -409 1 -128 -48 -198 -181 -262 -154 -74 -222 -162 -231 -303 l-5
-73 64 -33 c114 -57 199 -122 199 -152 0 -5 -316 -245 -410 -311 -116 -82
-142 -98 -154 -93 -6 3 -20 48 -29 100 -10 53 -22 108 -27 124 -141 436 -165
495 -234 571 -30 33 -35 45 -41 117 -7 85 -54 243 -85 286 -10 14 -30 48 -44
75 -14 28 -35 60 -47 73 -11 12 -22 31 -24 42 -2 12 -12 28 -22 36 -10 8 -13
12 -6 9 6 -4 -2 21 -18 54 -16 33 -29 64 -29 68 -1 11 -37 52 -47 52 -12 0
-46 -56 -86 -144 -20 -42 -48 -91 -62 -108 -14 -17 -31 -50 -37 -74 -7 -24
-16 -44 -20 -44 -4 0 -8 -15 -8 -33 0 -38 -22 -73 -38 -63 -17 10 -15 72 4 90
8 9 13 20 10 24 -6 10 16 85 39 129 9 18 14 37 11 41 -3 5 -27 17 -53 27 -70
26 -90 46 -59 58 7 3 29 -5 47 -18 19 -13 46 -27 61 -30 26 -7 29 -3 57 56 70
152 94 258 93 407 -2 205 -57 324 -233 501 -82 82 -147 131 -234 174 -60 30
-172 77 -184 77 -2 0 27 -33 65 -73 114 -119 157 -177 219 -285 95 -168 116
-246 131 -473 8 -131 0 -199 -24 -199 -35 0 -172 109 -172 137 0 7 -4 13 -10
13 -5 0 -9 10 -8 23 2 30 -39 150 -62 179 -10 13 -32 52 -48 86 -46 94 -133
218 -212 301 -69 73 -84 96 -55 85 8 -4 15 -2 15 3 0 17 -41 94 -78 146 -20
29 -37 53 -38 55 -1 2 -14 -4 -27 -13 -18 -11 -27 -29 -32 -58 -4 -23 -15 -64
-25 -92 -25 -71 -32 -157 -21 -247 11 -84 40 -151 100 -233 46 -63 48 -115 7
-196 l-28 -55 22 -44 c12 -24 28 -61 36 -84 15 -46 13 -44 -47 42 -17 24 -44
51 -60 60 -16 10 -29 22 -29 28 0 16 -78 98 -95 100 -8 1 -15 -2 -15 -7 0 -5
-12 -9 -27 -8 -16 0 -22 3 -15 6 6 2 12 9 12 14 0 6 -9 5 -21 -1 -24 -13 -41
-4 -19 10 13 9 13 10 0 11 -8 1 -20 1 -27 0 -6 -1 -14 3 -18 8 -3 6 -12 8 -20
4 -8 -3 -15 -1 -15 4 0 6 -39 27 -87 49 -153 67 -373 212 -373 245 0 3 21 9
47 12 34 3 52 12 65 29 38 49 44 55 68 71 14 10 23 20 20 24 -3 3 4 7 14 9 10
1 22 7 25 11 3 5 20 15 37 22 17 6 49 31 71 54 22 23 54 53 72 67 17 14 31 28
31 32 0 5 -26 8 -57 9 -32 1 -69 5 -83 9 -22 7 -20 8 15 10 22 1 45 3 50 5 6
1 15 3 20 4 6 1 -3 8 -20 17 -89 44 -146 86 -186 137 -28 35 -38 55 -33 70 4
12 2 17 -4 13 -6 -3 -9 1 -7 11 2 10 4 23 4 28 1 6 5 4 10 -4 7 -10 10 -10 16
-1 4 7 2 16 -6 21 -10 6 -9 9 6 15 11 4 24 9 29 12 5 3 6 -1 1 -8 -6 -10 0
-12 28 -7 19 3 38 3 42 -1 13 -14 193 10 270 36 28 9 61 27 75 40 14 12 28 22
32 22 15 0 8 18 -9 25 -10 5 -72 11 -138 15 l-120 7 98 1 c57 1 97 6 97 12 0
6 -16 10 -36 10 -20 0 -49 9 -65 21 -16 11 -29 17 -29 12 0 -4 -9 6 -20 22
-11 17 -20 26 -20 21 0 -5 -7 -3 -15 4 -8 7 -15 25 -15 41 0 26 3 28 58 33 31
4 86 11 122 17 86 13 162 13 235 0 116 -20 153 -20 158 -1 7 29 -13 40 -69 40
-29 0 -55 4 -58 9 -4 5 -35 23 -70 39 -53 25 -74 29 -127 27 -47 -2 -69 1 -88
15 -46 32 -91 33 -177 2 -81 -29 -168 -41 -178 -24 -7 12 -60 6 -64 -7 -2 -6
-8 -9 -12 -6 -12 7 -49 -33 -65 -70 -25 -59 -22 -87 20 -155 27 -43 38 -87 25
-95 -7 -4 -6 -13 1 -27 8 -15 8 -23 -1 -32 -9 -8 -11 -8 -8 2 6 26 -97 69
-179 74 -13 1 -23 6 -23 11 0 6 -5 5 -12 0 -15 -12 -49 -13 -42 -2 2 4 0 10
-6 14 -6 4 -8 11 -5 16 4 5 -4 9 -17 9 -19 0 -20 2 -8 11 11 8 12 12 3 16 -7
2 -13 11 -13 19 0 9 -5 12 -12 8 -10 -5 -10 -4 -1 6 11 12 7 43 -6 36 -6 -4
-31 19 -32 29 0 14 -38 73 -61 96 -16 15 -28 34 -28 43 0 9 -4 16 -10 16 -5 0
-10 5 -10 12 0 7 -12 23 -27 35 -16 14 -21 23 -12 23 10 1 9 4 -3 11 -10 5
-18 16 -18 23 0 8 -7 17 -16 20 -10 4 -13 13 -9 25 3 11 1 22 -5 26 -6 3 -8
10 -5 15 3 4 -2 10 -10 14 -8 3 -15 10 -15 16 0 19 -65 76 -82 72z m959 -598
c-3 -3 -12 -4 -19 -1 -8 3 -5 6 6 6 11 1 17 -2 13 -5z m510 -688 c67 -97 96
-146 130 -216 32 -68 26 -62 70 -66 63 -5 83 -39 127 -219 8 -33 22 -78 30
-100 9 -24 10 -41 5 -44 -6 -1 -11 -1 -13 0 -43 68 -96 124 -139 149 -55 32
-117 40 -117 16 0 -7 -6 -19 -14 -25 -11 -9 -20 -6 -42 13 l-29 24 28 11 c16
6 35 11 43 11 25 0 15 19 -18 36 -32 17 -32 17 -11 27 27 12 70 2 75 -18 2
-10 7 -12 18 -5 12 7 12 12 2 22 -6 6 -12 22 -12 33 0 12 -13 40 -28 61 -25
35 -78 133 -148 276 -60 121 -36 129 43 14z m2876 -11 c20 -14 37 -29 37 -33
0 -4 -26 -6 -57 -4 -47 3 -67 -2 -106 -22 -26 -14 -50 -26 -53 -26 -3 0 -4 14
-2 32 2 24 12 38 37 55 45 31 96 30 144 -2z m-4039 -320 c65 -45 97 -74 109
-100 9 -20 31 -44 47 -53 16 -9 30 -20 30 -23 0 -4 -19 -18 -41 -31 -41 -24
-42 -24 -77 -6 -20 10 -41 18 -47 18 -5 0 -28 17 -50 37 -52 48 -148 94 -196
95 -32 0 -39 4 -39 20 0 28 -19 60 -32 52 -6 -4 -17 1 -24 11 -15 20 -7 42 28
77 19 19 19 22 4 30 -9 5 -16 16 -16 23 0 8 -4 15 -9 15 -5 0 -11 9 -14 19 -6
23 178 -81 327 -184z m-718 44 c25 -62 14 -78 -23 -33 -33 40 -43 66 -30 82
17 21 30 9 53 -49z m184 -40 c0 -20 -15 -26 -25 -9 -9 15 3 43 15 35 5 -3 10
-15 10 -26z m3892 -39 c32 -9 88 -62 88 -83 0 -3 -18 2 -40 10 -41 16 -62 14
-156 -13 -20 -5 -21 -3 -15 28 5 24 15 37 41 50 41 21 35 21 82 8z m-2920 -17
c24 -22 23 -36 -2 -23 -17 9 -20 8 -20 -8 0 -29 -20 -43 -43 -30 -16 8 -23 7
-31 -4 -11 -15 -46 -21 -46 -8 0 14 100 90 119 90 3 0 13 -7 23 -17z m-512
-127 c0 -7 11 -30 25 -50 14 -20 25 -42 25 -48 0 -5 11 -24 25 -40 14 -17 24
-36 22 -42 -7 -20 -55 -18 -90 6 -33 21 -35 26 -39 88 -5 64 3 100 22 100 6 0
10 -6 10 -14z m312 -28 c38 -31 208 -221 208 -234 0 -35 -223 175 -232 217 -2
8 -7 17 -13 21 -6 5 -3 8 6 8 8 0 22 -6 31 -12z m1038 -186 l71 -69 -32 -67
c-36 -78 -29 -104 16 -62 15 14 31 26 34 26 18 0 51 -34 51 -51 0 -11 4 -18 9
-15 5 4 17 -16 26 -43 9 -27 27 -61 40 -76 30 -32 32 -55 5 -62 -25 -7 -25
-15 -2 -36 13 -12 18 -34 20 -79 2 -55 45 -222 73 -283 17 -38 57 -181 79
-280 12 -55 33 -132 46 -172 13 -39 24 -77 24 -83 0 -7 -26 -39 -57 -71 -40
-42 -64 -59 -82 -59 -14 0 -39 -8 -56 -18 -62 -38 -186 -35 -227 5 -11 12 -21
38 -24 64 l-4 44 14 -31 c23 -49 40 -57 97 -50 124 17 309 96 309 133 0 7 -13
22 -30 31 -19 11 -30 25 -30 40 0 22 -15 31 -22 12 -2 -6 -23 -13 -48 -16
-146 -17 -132 -17 -192 -8 -26 4 -52 12 -58 19 -12 15 -10 16 80 35 91 19 154
41 176 62 15 14 29 17 48 12 30 -7 35 9 12 42 -8 11 -19 39 -25 62 -13 48 -48
87 -66 72 -8 -6 -27 6 -61 39 -45 43 -51 46 -64 32 -8 -8 -14 -21 -12 -28 2
-7 -5 -14 -15 -14 -24 -2 -25 -2 -45 6 -11 4 -18 1 -21 -12 -6 -26 -13 10 -27
142 -7 61 -20 155 -30 210 -31 163 -32 203 -16 327 13 103 14 120 0 146 -8 17
-21 36 -30 43 -26 21 -44 66 -44 109 0 22 5 40 10 40 6 0 42 -31 80 -68z
m-220 -18 c0 -53 -77 -87 -100 -44 -14 26 -4 60 18 60 9 0 26 7 36 15 24 18
46 3 46 -31z m-570 -60 c0 -17 -22 -14 -28 4 -2 7 3 12 12 12 9 0 16 -7 16
-16z m520 -169 c71 -106 110 -177 128 -235 12 -38 25 -150 17 -150 -3 0 -14
20 -25 44 -22 47 -36 59 -178 163 -90 66 -94 71 -139 160 -26 51 -43 96 -40
100 4 3 40 -27 79 -67 64 -64 135 -110 170 -110 15 0 0 52 -20 71 -9 8 -25 26
-35 40 -9 13 -28 39 -42 58 -14 19 -25 41 -25 49 0 26 38 -17 110 -123z m-476
109 c9 -3 16 -15 16 -25 0 -11 9 -27 20 -36 11 -10 20 -23 20 -30 0 -7 9 -13
19 -13 23 0 40 -22 23 -28 -17 -5 -15 -32 3 -32 10 0 15 -10 15 -29 0 -17 5
-33 11 -36 6 -4 8 -13 5 -20 -3 -8 2 -19 10 -26 9 -8 13 -21 10 -35 -4 -13 0
-27 9 -34 8 -7 15 -23 15 -35 0 -12 7 -28 15 -35 8 -7 15 -23 15 -37 0 -13 7
-26 15 -29 8 -4 15 -17 15 -30 0 -14 7 -27 15 -30 8 -4 15 -12 15 -20 0 -8 4
-22 9 -32 5 -9 12 -25 15 -35 3 -10 10 -15 16 -12 6 4 10 -5 10 -19 0 -14 5
-28 10 -31 6 -3 10 -17 10 -31 0 -15 6 -24 16 -24 12 0 15 -6 10 -24 -4 -15 0
-28 10 -36 8 -7 13 -19 10 -26 -3 -8 1 -20 9 -28 8 -8 15 -26 15 -40 0 -14 4
-27 9 -30 5 -3 7 -15 4 -25 -3 -10 0 -22 6 -25 6 -4 11 -17 11 -28 0 -35 -10
-15 -46 94 -43 126 -40 121 -212 433 -25 46 -92 211 -92 227 0 5 -7 25 -15 45
-14 33 -17 35 -28 19 -17 -23 -76 -18 -91 7 -14 22 6 37 52 37 17 0 32 4 32 9
0 12 -28 81 -46 114 -16 29 -15 31 10 21z m1520 -135 c22 -11 82 -106 72 -116
-2 -2 -21 15 -42 38 -22 23 -45 48 -51 55 -13 12 -18 34 -8 34 2 0 15 -5 29
-11z m-56 -21 c25 -25 14 -37 -23 -25 -19 6 -35 16 -35 24 0 16 42 17 58 1z
m-2763 -71 c103 -133 217 -375 214 -454 -2 -26 -2 -26 -6 -4 -6 29 -67 120
-116 174 -19 20 -30 37 -23 38 6 0 -1 5 -16 11 -16 5 -28 17 -28 27 0 9 -5 22
-11 28 -5 5 -12 24 -14 42 -4 28 -3 30 11 16 9 -8 20 -15 25 -15 5 0 9 -6 9
-14 0 -8 4 -17 9 -21 33 -20 -45 130 -91 177 -18 18 -25 48 -10 47 4 0 25 -23
47 -52z m299 -3 c9 -3 13 -10 10 -15 -3 -5 -1 -9 5 -9 6 0 35 -25 66 -55 30
-31 55 -52 55 -49 0 4 12 -5 26 -20 15 -14 30 -26 34 -26 14 0 50 -38 50 -52
0 -9 7 -21 15 -28 8 -7 13 -16 10 -20 -3 -4 2 -13 10 -20 8 -7 31 -39 51 -71
19 -33 39 -59 43 -59 4 0 13 -16 21 -35 8 -19 17 -35 22 -35 12 0 -2 -52 -22
-77 -10 -12 -20 -19 -24 -16 -3 3 -6 2 -6 -4 0 -5 10 -15 23 -22 22 -11 22
-11 -3 -5 -23 6 -24 5 -10 -11 8 -9 13 -32 11 -50 -1 -19 3 -43 9 -54 6 -13 7
-21 1 -21 -5 0 0 -23 11 -51 18 -43 19 -52 7 -60 -19 -12 -31 -7 -49 23 -8 13
-27 42 -41 64 -14 21 -27 44 -29 49 -1 6 -16 27 -32 48 -28 35 -40 65 -55 142
-9 51 -10 69 0 82 11 15 -16 63 -36 63 -8 0 -7 3 2 9 12 8 12 12 2 25 -8 9
-10 16 -5 16 5 0 4 4 -2 8 -12 8 -86 152 -78 152 3 0 -1 6 -8 14 -7 8 -16 12
-20 10 -3 -2 -11 10 -17 26 -5 17 -15 30 -20 30 -6 0 -8 6 -6 13 3 6 -8 28
-25 47 -40 47 -39 60 4 44z m2493 -9 c3 -9 3 -19 -1 -22 -7 -7 -36 16 -36 28
0 15 30 10 37 -6z m-197 -148 c0 -29 -7 -37 -26 -30 -14 5 -19 35 -7 46 14 15
33 6 33 -16z m2306 -11 c23 -36 14 -68 -24 -87 -32 -17 -72 -15 -72 2 0 15 61
109 71 109 5 0 16 -11 25 -24z m-2154 -134 c-7 -70 -14 -149 -17 -177 -4 -49
-15 -140 -21 -180 -2 -11 -3 -60 -4 -108 -1 -63 -5 -87 -13 -84 -12 4 -12 9
-2 252 3 77 6 172 6 210 1 68 22 205 35 226 4 8 10 7 17 0 8 -8 8 -47 -1 -139z
m-172 58 c0 -11 -4 -20 -10 -20 -5 0 -10 9 -10 20 0 11 5 20 10 20 6 0 10 -9
10 -20z m-1278 -112 c67 -31 140 -95 175 -155 30 -52 25 -69 -6 -19 -30 48
-114 122 -176 154 -46 25 -59 27 -169 27 -108 0 -115 1 -80 12 64 21 190 11
256 -19z m-1592 -62 c0 -5 -16 5 -35 24 -19 19 -35 38 -35 44 0 5 16 -5 35
-24 19 -19 35 -38 35 -44z m40 -38 c0 -6 -7 -5 -15 2 -8 7 -15 17 -15 22 0 6
7 5 15 -2 8 -7 15 -17 15 -22z m2092 -51 c23 -22 38 -47 38 -61 0 -13 3 -33 7
-43 6 -16 5 -17 -9 -2 -9 8 -30 27 -47 42 -30 25 -43 49 -62 111 l-8 28 22
-18 c12 -11 39 -36 59 -57z m-1890 -224 c56 -55 98 -113 81 -113 -5 0 -42 34
-83 75 -41 41 -80 75 -87 75 -7 0 -13 5 -13 10 0 27 47 5 102 -47z m2402 0 c8
-21 1 -27 -54 -43 -25 -7 -64 -19 -88 -26 -23 -8 -61 -14 -82 -14 -33 0 -40 4
-40 19 0 22 7 25 115 56 98 29 141 31 149 8z m-384 -12 c0 -3 3 -16 6 -28 4
-13 2 -23 -3 -23 -10 0 -33 43 -33 60 0 10 30 2 30 -9z m-212 -90 c-2 -10 5
-29 14 -44 10 -14 15 -32 12 -40 -3 -8 2 -21 10 -30 9 -9 13 -23 10 -31 -4
-11 -1 -16 10 -16 17 0 40 -45 31 -60 -2 -4 -16 -10 -30 -12 -28 -6 -28 -5
-65 155 -24 106 -24 108 -5 100 9 -3 15 -13 13 -22z m272 -47 c0 -8 -5 -12
-10 -9 -6 4 -8 11 -5 16 9 14 15 11 15 -7z m682 -18 c-2 -17 2 -26 12 -26 7 0
17 -8 21 -17 7 -17 8 -16 15 2 7 19 8 19 15 1 5 -10 3 -21 -3 -25 -9 -5 -5
-35 13 -105 30 -119 30 -123 4 -131 -30 -10 -37 1 -56 94 -12 64 -14 88 -5
102 9 14 9 20 -2 26 -31 19 -53 121 -23 110 6 -2 11 -16 9 -31z m-1982 8 c0
-8 -4 -12 -10 -9 -5 3 -10 10 -10 16 0 5 5 9 10 9 6 0 10 -7 10 -16z m12 -46
c-8 -8 -9 -4 -5 13 4 13 8 18 11 10 2 -7 -1 -18 -6 -23z m1305 0 c-3 -8 -6 -5
-6 6 -1 11 2 17 5 13 3 -3 4 -12 1 -19z m2131 -195 c-2 -20 -25 -46 -83 -95
-260 -222 -555 -443 -579 -435 -29 10 -1 37 116 116 159 108 340 256 440 361
82 85 112 100 106 53z m-2994 -398 c-3 -7 4 -15 15 -18 44 -11 18 -22 -53 -22
-82 0 -91 9 -21 19 25 4 45 11 45 17 0 5 -3 9 -7 9 -5 0 -26 16 -47 34 -27 24
-37 39 -32 51 5 14 15 9 55 -30 27 -26 47 -53 45 -60z m-1674 60 c57 -29 116
-95 130 -144 22 -78 -1 -199 -41 -224 -11 -7 -19 -17 -19 -24 0 -6 -15 -13
-32 -15 -23 -2 -32 -8 -30 -18 3 -12 1 -12 -9 -3 -8 8 -18 9 -31 2 -17 -9 -19
-8 -17 8 1 10 -31 21 -63 22 -16 1 -36 12 -52 32 -14 17 -26 28 -26 24 0 -3
-9 -1 -20 5 -11 6 -18 15 -15 20 7 11 -40 62 -49 53 -3 -4 -6 1 -6 10 0 8 -6
17 -12 20 -10 3 -10 10 1 28 13 22 13 23 -3 10 -15 -13 -19 -13 -26 -1 -5 8
-7 17 -4 21 2 4 -3 12 -11 19 -8 7 -15 18 -15 24 0 6 5 4 10 -4 7 -11 13 -6
26 25 9 22 20 42 24 45 5 3 8 14 7 24 -2 21 45 54 96 67 50 13 134 1 187 -26z
m-525 -85 c3 -6 -1 -7 -9 -4 -18 7 -21 14 -7 14 6 0 13 -4 16 -10z m2392 -220
c39 0 95 -17 118 -35 19 -16 19 -16 -2 -6 -12 6 -62 11 -111 11 -63 0 -93 4
-101 14 -9 11 -6 13 16 10 16 -2 22 -1 15 2 -6 3 -10 10 -6 15 3 5 13 5 24 -1
10 -5 31 -10 47 -10z m-2763 -311 c-3 -5 2 -9 12 -9 9 0 33 -15 54 -32 62 -55
101 -87 108 -90 4 -2 6 -6 5 -10 -2 -5 4 -8 12 -8 8 0 15 -7 15 -17 0 -9 3
-14 6 -10 8 8 54 -34 54 -50 0 -7 5 -13 12 -13 6 0 3 -7 -8 -15 -17 -13 -17
-14 -1 -15 17 0 22 -11 11 -23 -4 -4 -12 -3 -18 0 -6 4 -17 8 -26 9 -39 5 -65
15 -68 24 -2 6 -7 8 -12 5 -12 -7 -123 115 -153 169 -14 26 -28 59 -30 75 -4
24 -2 28 14 24 10 -3 16 -9 13 -14z m3114 -86 c-10 -2 -28 -2 -40 0 -13 2 -5
4 17 4 22 1 32 -1 23 -4z m95 0 c-13 -2 -33 -2 -45 0 -13 2 -3 4 22 4 25 0 35
-2 23 -4z m1112 -392 c3 -5 2 -12 -3 -15 -5 -3 -9 1 -9 9 0 17 3 19 12 6z
m-3185 -233 c0 -6 -6 -5 -15 2 -8 7 -15 14 -15 16 0 2 7 1 15 -2 8 -4 15 -11
15 -16z m239 -37 c-15 -5 -22 6 -14 19 6 9 10 9 16 -1 5 -8 4 -15 -2 -18z
m-259 13 c0 -8 -19 -13 -24 -6 -3 5 1 9 9 9 8 0 15 -2 15 -3z m110 -9 c0 -8
-4 -15 -10 -15 -5 0 -7 7 -4 15 4 8 8 15 10 15 2 0 4 -7 4 -15z m-175 -15 c3
-5 2 -10 -4 -10 -5 0 -13 5 -16 10 -3 6 -2 10 4 10 5 0 13 -4 16 -10z m-175
-40 c0 5 5 10 12 10 8 0 6 -6 -5 -17 -16 -16 -18 -16 -34 1 -17 18 -17 18 5 7
14 -8 22 -8 22 -1z m40 -38 c0 -5 -7 -9 -15 -9 -8 0 -15 4 -15 9 0 4 7 8 15 8
8 0 15 -4 15 -8z m520 -32 c0 -13 -6 -20 -17 -19 -11 0 -13 3 -5 6 6 2 12 11
12 19 0 8 2 14 5 14 3 0 5 -9 5 -20z"/>
<path d="M5696 3729 c-12 -38 -14 -78 -5 -121 11 -51 34 -68 55 -41 18 24 18
43 0 43 -17 0 -27 25 -31 81 -3 43 -12 60 -19 38z"/>
<path d="M4176 3174 c-10 -25 -1 -27 19 -4 15 17 16 20 3 20 -9 0 -19 -7 -22
-16z"/>
<path d="M4197 3163 c-10 -9 12 -43 28 -43 16 0 16 -20 1 -31 -4 -4 4 -6 19
-6 22 0 24 2 12 8 -9 5 -14 17 -12 27 3 17 -38 56 -48 45z"/>
<path d="M4090 5830 c0 -5 5 -10 11 -10 5 0 7 5 4 10 -3 6 -8 10 -11 10 -2 0
-4 -4 -4 -10z"/>
<path d="M4290 5820 c0 -5 5 -10 11 -10 5 0 7 5 4 10 -3 6 -8 10 -11 10 -2 0
-4 -4 -4 -10z"/>
<path d="M4136 5771 c-4 -7 -5 -15 -2 -18 9 -9 19 4 14 18 -4 11 -6 11 -12 0z"/>
<path d="M4250 5520 c0 -5 5 -10 11 -10 5 0 7 5 4 10 -3 6 -8 10 -11 10 -2 0
-4 -4 -4 -10z"/>
<path d="M131 5230 c-52 -107 -86 -218 -78 -250 3 -11 -1 -21 -8 -23 -6 -3
-11 -19 -10 -36 1 -18 -2 -34 -7 -37 -4 -3 -8 -10 -8 -17 0 -8 3 -8 11 0 9 9
18 8 36 -4 21 -14 23 -14 17 1 -3 9 -12 16 -20 16 -18 0 -18 26 0 33 11 4 13
1 9 -10 -5 -12 -2 -15 13 -11 10 2 27 -3 37 -12 17 -17 17 -18 -5 -24 -14 -5
-18 -9 -10 -13 6 -2 12 -12 12 -21 0 -15 -2 -15 -11 -2 -7 10 -9 11 -7 2 6
-21 22 -17 35 9 12 24 13 24 13 2 0 -12 -4 -24 -9 -28 -6 -3 -8 -14 -6 -25 2
-11 -1 -20 -6 -20 -6 0 -7 -5 -4 -10 4 -7 13 -4 23 8 12 13 30 19 62 18 45 -1
45 -1 43 -36 -1 -19 1 -27 3 -17 3 9 15 17 26 17 17 0 19 -4 14 -26 -4 -14 -3
-23 2 -20 5 3 17 -3 27 -14 21 -24 35 -26 35 -6 0 21 20 30 33 17 9 -9 8 -11
-7 -5 -14 5 -17 3 -14 -12 2 -11 11 -18 22 -17 9 0 15 -1 12 -4 -3 -3 1 -12 9
-20 8 -8 15 -26 15 -41 0 -38 34 -213 59 -307 12 -44 23 -84 24 -90 2 -5 6
-16 11 -23 4 -7 10 -28 12 -45 5 -32 37 -126 55 -159 5 -10 9 -24 9 -31 0 -8
13 -40 29 -73 16 -32 39 -81 52 -109 13 -27 32 -63 44 -80 11 -16 20 -33 20
-36 0 -3 14 -18 30 -33 17 -15 23 -24 15 -20 -13 7 -13 5 -1 -9 7 -9 17 -15
21 -12 5 3 22 -9 39 -25 17 -17 39 -33 50 -35 10 -2 38 -13 61 -25 23 -12 39
-17 36 -12 -3 5 2 16 11 23 15 12 16 12 10 -5 -6 -14 -4 -17 9 -12 8 3 18 6
20 6 3 0 2 5 -1 10 -3 6 -1 10 4 10 6 0 11 -5 11 -11 0 -5 5 -7 10 -4 5 3 10
1 10 -6 0 -9 3 -9 14 0 11 9 14 8 12 -6 -1 -12 5 -17 17 -15 10 2 17 -3 17
-13 0 -9 5 -13 10 -10 15 9 12 0 -11 -39 -12 -20 -27 -36 -35 -36 -16 0 -34
-31 -34 -60 0 -16 4 -20 16 -16 85 33 176 32 278 -4 33 -11 61 -18 63 -16 6 6
-20 46 -88 136 -83 110 -189 270 -189 286 0 8 7 14 15 14 27 0 92 38 114 66
13 16 19 35 15 46 -3 10 2 39 12 63 22 59 14 111 -26 166 -18 24 -29 34 -26
23 12 -40 -22 -37 -67 6 -39 38 -41 41 -24 54 24 19 13 23 -61 25 -52 1 -71
-4 -109 -26 l-46 -27 -20 25 c-11 13 -38 62 -59 109 -21 47 -43 94 -48 105
-38 81 -142 392 -155 467 -6 31 -4 38 15 48 34 18 61 41 122 102 50 51 57 56
63 38 13 -42 51 -13 105 83 42 74 38 87 -13 40 -203 -187 -519 -173 -676 30
-21 29 -46 68 -54 87 -8 19 -21 51 -30 70 l-15 35 -51 -105z m94 -368 c-3 -3
-11 0 -18 7 -9 10 -8 11 6 5 10 -3 15 -9 12 -12z m-39 -9 c0 -10 11 -23 27
-31 34 -17 29 -25 -16 -27 -31 -1 -34 2 -34 30 0 16 5 33 11 37 15 10 14 10
12 -9z m74 -23 c0 -5 -5 -10 -11 -10 -5 0 -7 5 -4 10 3 6 8 10 11 10 2 0 4 -4
4 -10z"/>
<path d="M3235 4918 c-48 -27 -96 -107 -99 -162 -2 -52 21 -36 70 49 70 122
74 139 29 113z"/>
<path d="M3057 4839 c-17 -26 -20 -41 -18 -77 2 -33 17 -19 37 34 12 32 14 48
6 56 -7 7 -15 3 -25 -13z"/>
<path d="M2956 4818 c-43 -40 -67 -94 -55 -125 13 -36 25 -27 49 37 12 33 29
65 37 71 8 7 19 21 24 31 16 30 -14 22 -55 -14z"/>
<path d="M26 4822 c-3 -5 -1 -14 3 -20 6 -10 10 -10 20 1 9 12 8 16 -3 20 -9
4 -17 3 -20 -1z"/>
<path d="M3 4785 c-3 -9 -3 -18 -1 -21 3 -3 8 4 11 16 6 23 -1 27 -10 5z"/>
<path d="M25 4770 c-3 -5 -1 -10 4 -10 6 0 11 5 11 10 0 6 -2 10 -4 10 -3 0
-8 -4 -11 -10z"/>
<path d="M200 4750 c0 -5 5 -10 10 -10 6 0 10 5 10 10 0 6 -4 10 -10 10 -5 0
-10 -4 -10 -10z"/>
<path d="M145 4729 c-4 -6 -5 -12 -2 -15 2 -3 7 2 10 11 7 17 1 20 -8 4z"/>
<path d="M210 4730 c-8 -4 -30 -15 -49 -23 -22 -10 -29 -17 -21 -22 8 -5 16
-1 22 9 8 15 11 15 33 -1 12 -10 21 -21 18 -25 -8 -14 -21 -9 -26 10 -3 12 -5
11 -6 -6 0 -13 -5 -21 -9 -18 -5 3 -9 -1 -9 -8 0 -10 9 -12 30 -9 19 3 27 1
22 -6 -3 -6 -1 -11 4 -11 6 0 11 5 11 11 0 6 6 9 13 6 6 -2 21 7 31 22 11 14
16 23 11 19 -4 -4 -14 0 -21 10 -12 15 -12 15 -7 -6 4 -16 2 -22 -8 -20 -8 2
-17 8 -21 13 -11 15 -9 47 2 40 6 -3 10 1 10 9 0 18 -7 19 -30 6z"/>
<path d="M300 4662 c0 -5 9 -12 21 -15 13 -3 19 -1 16 6 -5 15 -37 22 -37 9z"/>
<path d="M1875 4628 c-30 -23 -55 -74 -55 -111 0 -13 12 -46 26 -74 20 -42 35
-57 77 -77 61 -31 91 -32 135 -6 49 30 72 75 72 142 0 46 -5 62 -26 88 -38 44
-75 60 -142 60 -46 0 -66 -5 -87 -22z m209 -69 c66 -52 -12 -132 -82 -83 -14
10 -22 26 -22 44 0 57 54 78 104 39z"/>
<path d="M141 4624 c0 -11 3 -14 6 -6 3 7 2 16 -1 19 -3 4 -6 -2 -5 -13z"/>
<path d="M1035 3450 c3 -5 10 -10 16 -10 5 0 9 5 9 10 0 6 -7 10 -16 10 -8 0
-12 -4 -9 -10z"/>
<path d="M1015 2770 c3 -5 8 -10 11 -10 2 0 4 5 4 10 0 6 -5 10 -11 10 -5 0
-7 -4 -4 -10z"/>
<path d="M8908 2653 c-27 -7 -41 -55 -28 -101 6 -23 15 -44 20 -47 12 -7 70
82 70 106 0 18 -26 50 -38 48 -4 -1 -14 -3 -24 -6z"/>
<path d="M8101 1915 c-82 -26 -149 -113 -186 -239 -24 -81 -18 -237 10 -286
54 -91 190 -47 256 82 12 23 52 71 89 107 80 79 100 132 79 215 -16 65 -49 89
-109 81 -55 -7 -85 8 -57 29 16 12 16 14 1 20 -21 8 -31 7 -83 -9z"/>
<path d="M1455 1776 c22 -8 45 -22 51 -31 15 -21 2 -82 -23 -100 -60 -46 -143
27 -108 96 9 16 21 29 27 29 6 0 8 3 5 7 -12 12 -69 -50 -93 -102 -32 -68 -32
-103 2 -115 15 -6 38 -19 52 -30 59 -47 135 -6 177 94 24 56 19 103 -11 131
-15 14 -32 25 -39 25 -7 0 -28 2 -46 5 -33 6 -33 6 6 -9z"/>
<path d="M7687 1202 c-9 -10 -19 -32 -22 -48 -7 -37 7 -116 21 -121 6 -2 30
28 54 68 36 61 41 75 31 95 -13 30 -60 33 -84 6z"/>
<path d="M6826 1059 c-30 -23 -91 -145 -101 -202 -9 -48 11 -123 39 -142 29
-21 75 -19 121 6 45 23 66 46 96 102 22 42 19 58 -10 50 -10 -3 -33 2 -49 11
-51 26 -61 95 -27 179 10 25 -35 23 -69 -4z"/>
<path d="M7026 983 c-10 -10 -7 -25 4 -18 6 3 7 -1 4 -9 -3 -9 -10 -13 -15
-10 -5 3 -6 -2 -3 -10 3 -9 10 -13 15 -10 16 10 9 -9 -8 -22 -10 -7 -13 -14
-7 -14 13 0 35 24 33 36 -1 5 0 11 1 14 8 21 6 39 -5 44 -7 2 -16 2 -19 -1z"/>
<path d="M3590 796 c0 -2 7 -9 15 -16 9 -7 15 -8 15 -2 0 5 -7 12 -15 16 -8 3
-15 4 -15 2z"/>
<path d="M3202 720 c-10 -16 -10 -20 2 -20 7 0 19 -6 25 -13 6 -8 27 -14 48
-15 20 -1 39 -6 42 -11 5 -7 58 -18 104 -20 5 -1 6 -5 3 -10 -3 -4 12 -6 34
-4 23 3 40 1 40 -5 0 -6 9 -8 20 -5 12 3 28 -2 39 -11 15 -14 20 -14 37 -1 10
8 14 15 7 15 -6 0 -9 9 -6 21 5 18 2 20 -40 18 -25 -2 -44 -6 -41 -11 3 -4 1
-8 -5 -8 -5 0 -12 4 -16 10 -3 5 -13 6 -22 3 -9 -3 -21 0 -27 8 -12 15 -86 20
-86 5 0 -5 -7 -3 -15 4 -8 7 -13 16 -10 20 3 4 -6 11 -20 14 -14 4 -25 11 -25
16 0 6 -5 10 -11 10 -6 0 -7 -6 -2 -12 4 -7 -5 -5 -20 5 -34 22 -39 21 -55 -3z
m376 -88 c5 -17 -25 -15 -31 2 -4 9 0 13 11 12 9 -2 18 -8 20 -14z"/>
<path d="M3363 693 c9 -2 25 -2 35 0 9 3 1 5 -18 5 -19 0 -27 -2 -17 -5z"/>
<path d="M3468 673 c7 -3 16 -2 19 1 4 3 -2 6 -13 5 -11 0 -14 -3 -6 -6z"/>
</g>
</svg>
